<?xml version="1.0" encoding="UTF-8"?>
<svg width="261px" height="314px" viewBox="0 0 261 314" version="1.1" xmlns="http://www.w3.org/2000/svg" xmlns:xlink="http://www.w3.org/1999/xlink">
    <!-- Generator: Sketch 52.5 (67469) - http://www.bohemiancoding.com/sketch -->
    <title>Group</title>
    <desc>Created with Sketch.</desc>
    <defs>
        <linearGradient x1="94.2274306%" y1="65.1524378%" x2="7.77090567%" y2="50%" id="linearGradient-1">
            <stop stop-color="#FFFFFF" offset="0%"></stop>
            <stop stop-color="#E6E6E6" offset="7.90959176%"></stop>
            <stop stop-color="#CDCDCD" offset="18.0793895%"></stop>
            <stop stop-color="#E9E9E9" offset="26.6279805%"></stop>
            <stop stop-color="#EDEDED" offset="100%"></stop>
        </linearGradient>
        <linearGradient x1="64.9157647%" y1="0%" x2="46.4167249%" y2="82.3470745%" id="linearGradient-2">
            <stop stop-color="#E9E9E9" offset="0%"></stop>
            <stop stop-color="#8D8D8D" offset="100%"></stop>
        </linearGradient>
        <linearGradient x1="0%" y1="0%" x2="100%" y2="100%" id="linearGradient-3">
            <stop stop-color="#F7F7F7" offset="0%"></stop>
            <stop stop-color="#DDDDDD" offset="31.0038837%"></stop>
            <stop stop-color="#7B7B7B" offset="100%"></stop>
        </linearGradient>
        <linearGradient x1="50%" y1="0%" x2="50%" y2="100%" id="linearGradient-4">
            <stop stop-color="#B7B7B7" offset="0%"></stop>
            <stop stop-color="#E6E6E6" offset="100%"></stop>
        </linearGradient>
        <linearGradient x1="61.4764178%" y1="70.3810307%" x2="61.4764178%" y2="-50.7195724%" id="linearGradient-5">
            <stop stop-color="#FFFFFF" offset="0%"></stop>
            <stop stop-color="#D9D9D9" offset="100%"></stop>
        </linearGradient>
        <linearGradient x1="50%" y1="116.199449%" x2="58.3164828%" y2="0%" id="linearGradient-6">
            <stop stop-color="#FFFFFF" offset="0%"></stop>
            <stop stop-color="#8D8D8D" offset="100%"></stop>
        </linearGradient>
    </defs>
    <g id="Page-1" stroke="none" stroke-width="1" fill="none" fill-rule="evenodd">
        <g id="Group" transform="translate(3.000000, 3.000000)">
            <path d="M20,147 L39.6132813,289.033124 C56.6445313,301.402916 86.7877604,307.587812 130.042969,307.587812 C173.298177,307.587812 202.283854,301.069582 217,288.033124 L236,147 L20,147 Z" id="Path-3-Copy" fill-opacity="0.85" fill="url(#linearGradient-1)" transform="translate(128.000000, 227.293906) scale(-1, 1) translate(-128.000000, -227.293906) "></path>
            <path d="M37,147 L54.9788411,289.033124 C70.5908203,301.402916 98.2221137,307.587812 137.872721,307.587812 C177.523329,307.587812 204.093533,301.069582 217.583333,288.033124 L235,147 L37,147 Z" id="Path-3" fill-opacity="0.85" fill="url(#linearGradient-1)"></path>
            <ellipse id="Oval-Copy" stroke="url(#linearGradient-2)" stroke-width="5" cx="126.5" cy="284.5" rx="89.5" ry="23.5"></ellipse>
            <path d="M0,34 L38.6132812,289.445312" id="Path-2" stroke="url(#linearGradient-3)" stroke-width="5"></path>
            <path d="M216.226563,34 L255.226563,284.5" id="Path-2-Copy" stroke="url(#linearGradient-4)" stroke-width="5" transform="translate(235.613281, 159.000000) scale(-1, 1) translate(-235.613281, -159.000000) "></path>
            <ellipse id="Oval" fill="url(#linearGradient-5)" cx="127" cy="147.5" rx="108" ry="28.5"></ellipse>
            <ellipse id="Oval" stroke="url(#linearGradient-6)" stroke-width="5" cx="127.5" cy="34" rx="127.5" ry="34"></ellipse>
        </g>
    </g>
</svg>