<?xml version="1.0" encoding="UTF-8"?>
<svg width="249px" height="57px" viewBox="0 0 249 57" version="1.1" xmlns="http://www.w3.org/2000/svg" xmlns:xlink="http://www.w3.org/1999/xlink">
    <!-- Generator: Sketch 52.5 (67469) - http://www.bohemiancoding.com/sketch -->
    <title>Slice 1</title>
    <desc>Created with Sketch.</desc>
    <defs>
        <path d="M19.0325259,3.73608696 C23.1506954,3.73608696 27.2688031,4.2840409 31.3869726,5.37996522 C32.1660857,5.57922418 32.5556364,6.02755014 32.5556364,6.72495652 L32.5556364,17.0365565 C32.5556364,17.7837776 32.1382607,18.1573826 31.3034966,18.1573826 L26.6288411,18.1573826 C25.794077,18.1573826 25.4045263,17.7837776 25.4601772,17.0365565 L25.7106052,12.0302 C23.4845676,10.8346462 21.008138,10.2368783 18.281242,10.2368783 C15.554346,10.2368783 13.3700794,10.8221927 11.7283767,11.9928391 C10.086674,13.1634856 9.26583499,14.7948939 9.26583499,16.887113 C9.26583499,18.9793322 10.0171114,20.6854615 11.5196867,22.0055522 C13.0222621,23.3256428 15.1647911,24.4589112 17.947338,25.4053913 C20.729885,26.3518714 22.5941635,26.9994533 23.5402294,27.3481565 C24.4862954,27.6968597 25.8636355,28.3444416 27.672291,29.2909217 C29.4809465,30.2374018 30.816549,31.1714142 31.6791385,32.092987 C32.5417281,33.0145597 33.3486546,34.247456 34.0999423,35.791713 C34.8512299,37.33597 35.2268682,39.0545529 35.2268682,40.947513 C35.2268682,45.8791725 33.4878024,49.7273036 30.0096187,52.4920217 C26.531435,55.2567399 21.5924883,56.6390783 15.1926303,56.6390783 C10.4623005,56.6390783 5.7876918,55.9914963 1.16866387,54.696313 C0.389550729,54.4970541 0,54.0487281 0,53.3513217 L0,41.4705652 C0,40.7233441 0.417375781,40.3497391 1.25213986,40.3497391 L5.92679535,40.3497391 C6.76155943,40.3497391 7.15111016,40.7233441 7.09545922,41.4705652 L6.76155526,47.6724696 C7.48501747,48.2702465 8.69540723,48.8306539 10.3927609,49.3537087 C12.0901145,49.8767635 13.8291803,50.138287 15.6100103,50.138287 C22.5107267,50.138287 25.9610332,47.6226802 25.9610332,42.5913913 C25.9610332,40.150469 25.0428064,38.2201767 23.2063255,36.8004565 C21.3698445,35.3807364 18.9908025,34.2350145 16.0691282,33.3632565 C13.147454,32.4914985 10.9353623,31.7193816 9.43278697,31.0468826 C7.93021162,30.3743836 6.39983376,29.4901852 4.84160747,28.3942609 C1.7251549,26.3020417 0.166951982,23.0890391 0.166951982,18.7551565 C0.166951982,14.421274 1.8364551,10.8346664 5.17551143,7.99522609 C8.51456776,5.1557858 13.1335264,3.73608696 19.0325259,3.73608696 Z M60.6870454,56.6390783 C54.0645836,56.6390783 49.2091121,54.9080419 46.120485,51.4459174 C43.0318579,47.9837928 41.4875675,43.4009053 41.4875675,37.6971174 C41.4875675,31.9933295 43.1292455,27.2734535 46.4126509,23.5373478 C49.6960563,19.8012422 54.4263152,17.9332174 60.6035694,17.9332174 C63.664371,17.9332174 66.2938384,18.4438108 68.4920505,19.465013 C70.6902626,20.4862153 72.3736782,21.8685536 73.542348,23.6120696 C75.7683855,26.999472 76.8813876,30.9098706 76.8813876,35.3433826 C76.8813876,37.4356018 76.7700874,38.5813236 76.5474836,38.7805826 C76.3248799,38.9798416 75.9075041,39.0794696 75.2953438,39.0794696 L50.7534025,39.0794696 C51.0316571,42.666131 52.0194465,45.4432612 53.7168001,47.4109435 C55.4141538,49.3786258 58.3496968,50.3624522 62.5235172,50.3624522 C65.5843188,50.3624522 68.7285497,49.7148702 71.9563041,48.419687 C72.7354173,48.0709838 73.2919183,48.2702397 73.625824,49.0174609 L75.2118678,52.4546609 C75.4901225,53.0524378 75.239697,53.5505777 74.4605839,53.9490957 C70.7876219,55.7424264 66.1964883,56.6390783 60.6870454,56.6390783 Z M50.7534025,33.5500609 L68.1164086,33.5500609 C68.2277104,27.3232181 65.5008553,24.2098435 59.9357615,24.2098435 C56.6523561,24.2098435 54.3289642,25.1438559 52.9655162,27.0119087 C51.6020682,28.8799615 50.8647043,31.0593238 50.7534025,33.5500609 Z M96.5817214,1.12082609 L96.5817214,49.8394 L101.840709,49.8394 C102.675473,49.8394 103.092849,50.213005 103.092849,50.9602261 L103.092849,54.6215913 C103.092849,55.3688124 102.675473,55.7424174 101.840709,55.7424174 L81.973423,55.7424174 C81.138659,55.7424174 80.7212832,55.3688124 80.7212832,54.6215913 L80.7212832,50.9602261 C80.7212832,50.213005 81.138659,49.8394 81.973423,49.8394 L87.2324105,49.8394 L87.2324105,6.12718261 L82.724707,6.12718261 C81.8899429,6.12718261 81.4725671,5.75357765 81.4725671,5.00635652 L81.4725671,1.12082609 C81.4725671,0.37360496 81.8899429,0 82.724707,0 L95.3295816,0 C96.1643457,0 96.5817214,0.37360496 96.5817214,1.12082609 Z M120.539331,24.8823391 L120.539331,43.7122174 C120.539331,46.0535103 120.873231,47.7471861 121.541043,48.7932957 C122.208854,49.8394052 123.460981,50.3624522 125.297462,50.3624522 C127.133943,50.3624522 128.914747,50.0137542 130.639926,49.3163478 C131.252086,49.1170889 131.697287,49.3163448 131.975542,49.9141217 L133.478109,53.3513217 C133.53376,53.500766 133.561585,53.7124754 133.561585,53.9864565 C133.561585,54.2604376 133.283335,54.5468681 132.726825,54.8457565 C130.05558,56.0413103 126.883524,56.6390783 123.210563,56.6390783 C118.257629,56.6390783 115.002098,55.4933564 113.443872,53.2018783 C112.330853,51.707436 111.690877,50.2628302 111.523924,48.8680174 C111.30132,46.9750572 111.19002,44.9824974 111.19002,42.8902783 L111.19002,24.8823391 L106.431888,24.8823391 C105.597124,24.8823391 105.179749,24.5087342 105.179749,23.761513 L105.179749,19.8759826 C105.179749,19.1287615 105.597124,18.7551565 106.431888,18.7551565 L111.19002,18.7551565 L111.19002,8.66772174 C111.19002,7.92050061 111.607396,7.54689565 112.44216,7.54689565 L119.287191,7.54689565 C120.121955,7.54689565 120.539331,7.92050061 120.539331,8.66772174 L120.539331,18.7551565 L128.970406,18.7551565 C129.80517,18.7551565 130.222546,19.1287615 130.222546,19.8759826 L130.222546,23.761513 C130.222546,24.5087342 129.80517,24.8823391 128.970406,24.8823391 L120.539331,24.8823391 Z M169.957117,45.2066522 L169.873641,54.6215913 C169.873641,55.3688124 169.456266,55.7424174 168.621502,55.7424174 L138.904049,55.7424174 C138.069285,55.7424174 137.651909,55.3688124 137.651909,54.6215913 L137.651909,50.2877304 C137.651909,49.5405093 137.902334,48.8680204 138.403193,48.2702435 L159.188715,24.7328957 L145.3317,24.7328957 L145.498652,28.6931478 C145.554303,29.440369 145.164752,29.8139739 144.329988,29.8139739 L139.738809,29.8139739 C138.904045,29.8139739 138.486669,29.440369 138.486669,28.6931478 L138.486669,19.8759826 C138.486669,19.1287615 138.904045,18.7551565 139.738809,18.7551565 L168.371074,18.7551565 C169.205838,18.7551565 169.623213,19.1287615 169.623213,19.8759826 L169.623213,24.0604 C169.623213,24.8076211 169.372788,25.4801101 168.87193,26.077887 L147.585552,49.9141217 L163.02861,49.9141217 L162.861658,45.2066522 C162.806007,44.459431 163.195558,44.0858261 164.030322,44.0858261 L168.704978,44.0858261 C169.539742,44.0858261 169.957117,44.459431 169.957117,45.2066522 Z M194.582535,56.6390783 C187.960073,56.6390783 183.104601,54.9080419 180.015974,51.4459174 C176.927347,47.9837928 175.383057,43.4009053 175.383057,37.6971174 C175.383057,31.9933295 177.024735,27.2734535 180.30814,23.5373478 C183.591546,19.8012422 188.321805,17.9332174 194.499059,17.9332174 C197.55986,17.9332174 200.189328,18.4438108 202.38754,19.465013 C204.585752,20.4862153 206.269168,21.8685536 207.437837,23.6120696 C209.663875,26.999472 210.776877,30.9098706 210.776877,35.3433826 C210.776877,37.4356018 210.665577,38.5813236 210.442973,38.7805826 C210.220369,38.9798416 209.802993,39.0794696 209.190833,39.0794696 L184.648892,39.0794696 C184.927147,42.666131 185.914936,45.4432612 187.612289,47.4109435 C189.309643,49.3786258 192.245186,50.3624522 196.419007,50.3624522 C199.479808,50.3624522 202.624039,49.7148702 205.851794,48.419687 C206.630907,48.0709838 207.187408,48.2702397 207.521313,49.0174609 L209.107357,52.4546609 C209.385612,53.0524378 209.135186,53.5505777 208.356073,53.9490957 C204.683111,55.7424264 200.091978,56.6390783 194.582535,56.6390783 Z M184.648892,33.5500609 L202.011898,33.5500609 C202.1232,27.3232181 199.396345,24.2098435 193.831251,24.2098435 C190.547845,24.2098435 188.224454,25.1438559 186.861006,27.0119087 C185.497558,28.8799615 184.760194,31.0593238 184.648892,33.5500609 Z M229.976355,25.1812261 C230.922421,23.1886364 232.452799,21.4825071 234.567534,20.062787 C236.68227,18.6430668 238.991749,17.9332174 241.496042,17.9332174 C244.000334,17.9332174 245.920262,18.1324734 247.255885,18.5309913 C247.923696,18.7302503 248.257597,19.1785762 248.257597,19.8759826 L248.257597,29.9634174 C248.257597,30.7106385 247.840221,31.0842435 247.005457,31.0842435 L241.579518,31.0842435 C240.744754,31.0842435 240.355203,30.7106385 240.410854,29.9634174 L240.744758,25.6295565 C240.466503,25.5797418 239.993477,25.5548348 239.325666,25.5548348 C236.765723,25.5548348 234.651019,26.4888472 232.981491,28.3569 C231.311962,30.2249528 230.477211,32.728106 230.477211,35.8664348 L230.477211,49.8394 L239.65957,49.8394 C240.494334,49.8394 240.91171,50.213005 240.91171,50.9602261 L240.91171,54.6215913 C240.91171,55.3688124 240.494334,55.7424174 239.65957,55.7424174 L216.703672,55.7424174 C215.868908,55.7424174 215.451532,55.3688124 215.451532,54.6215913 L215.451532,50.9602261 C215.451532,50.213005 215.868908,49.8394 216.703672,49.8394 L221.1279,49.8394 L221.1279,24.8823391 L216.620196,24.8823391 C215.785432,24.8823391 215.368056,24.5087342 215.368056,23.761513 L215.368056,19.8759826 C215.368056,19.1287615 215.785432,18.7551565 216.620196,18.7551565 L227.639027,18.7551565 C228.41814,18.7551565 228.891166,19.1287615 229.058119,19.8759826 L229.976355,25.1812261 Z" id="path-1"></path>
        <filter x="-0.4%" y="-1.8%" width="100.8%" height="103.5%" filterUnits="objectBoundingBox" id="filter-2">
            <feGaussianBlur stdDeviation="0.5" in="SourceAlpha" result="shadowBlurInner1"></feGaussianBlur>
            <feOffset dx="0.5" dy="1" in="shadowBlurInner1" result="shadowOffsetInner1"></feOffset>
            <feComposite in="shadowOffsetInner1" in2="SourceAlpha" operator="arithmetic" k2="-1" k3="1" result="shadowInnerInner1"></feComposite>
            <feColorMatrix values="0 0 0 0 0   0 0 0 0 0   0 0 0 0 0  0 0 0 0.5 0" type="matrix" in="shadowInnerInner1"></feColorMatrix>
        </filter>
    </defs>
    <g id="Page-1" stroke="none" stroke-width="1" fill="none" fill-rule="evenodd">
        <g id="Seltzer-Copy-7">
            <use fill="#FFFFFF" fill-rule="evenodd" xlink:href="#path-1"></use>
            <use fill="black" fill-opacity="1" filter="url(#filter-2)" xlink:href="#path-1"></use>
        </g>
    </g>
</svg>