<?xml version="1.0" encoding="UTF-8"?>
<svg width="144px" height="37px" viewBox="0 0 144 37" version="1.1" xmlns="http://www.w3.org/2000/svg" xmlns:xlink="http://www.w3.org/1999/xlink">
    <!-- Generator: Sketch 52.5 (67469) - http://www.bohemiancoding.com/sketch -->
    <title>Seltzer Copy 9</title>
    <desc>Created with Sketch.</desc>
    <g id="Page-1" stroke="none" stroke-width="1" fill="none" fill-rule="evenodd">
        <path d="M5.056,35.24 C4.99199968,35.1759997 4.92800032,35.144 4.864,35.144 C4.76799952,35.144 4.68800032,35.1599998 4.624,35.192 C4.55999968,35.2240002 4.49600032,35.24 4.432,35.24 C3.59999584,35.24 2.87200312,34.944003 2.248,34.352 C1.62399688,33.759997 1.16800144,33.0800038 0.88,32.312 C1.3600024,32.312 1.70399896,32.112002 1.912,31.712 C2.12000104,31.311998 2.31999904,30.7600035 2.512,30.056 C2.64000064,29.3839966 2.7839992,29.048 2.944,29.048 L7.072,31.448 C7.13600032,31.448 7.23999928,31.4320002 7.384,31.4 C7.52800072,31.3679998 7.71199888,31.352 7.936,31.352 C8.32000192,31.352 8.52799984,31.447999 8.56,31.64 L9.712,31.592 C10.2880029,31.592 10.7039987,31.6559994 10.96,31.784 C11.2160013,31.9120006 11.4079994,31.976 11.536,31.976 C13.4560096,31.976 15.319991,31.6320034 17.128,30.944 C18.936009,30.2559966 19.84,29.0800083 19.84,27.416 C19.84,26.7119965 19.6320021,25.9280043 19.216,25.064 C18.7999979,24.1999957 18.3040029,23.6560011 17.728,23.432 L4.72,17.768 C3.50399392,17.2559974 2.60800288,16.4320057 2.032,15.296 C1.45599712,14.1599943 1.168,12.8560074 1.168,11.384 C1.168,10.7119966 1.30399864,10.080003 1.576,9.488 C1.84800136,8.89599704 2.15199832,8.35200248 2.488,7.856 C2.82400168,7.35999752 3.05599936,7.01600096 3.184,6.824 C4.17600496,5.51199344 5.57599096,4.58400272 7.384,4.04 C9.19200904,3.49599728 11.1359896,3.224 13.216,3.224 C13.4720013,3.224 13.8639974,3.27999944 14.392,3.392 C14.9200026,3.50400056 15.6479954,3.56 16.576,3.56 C17.376004,3.68800064 18.3119946,3.85599896 19.384,4.064 C20.4560054,4.27200104 21.0079998,4.39199984 21.04,4.424 L21.904,5.336 L21.904,8.888 C21.904,9.0480008 21.7600014,9.34399784 21.472,9.776 C21.1839986,10.2080022 20.9760006,10.424 20.848,10.424 C20.4959982,10.2639992 19.6640066,9.8640032 18.352,9.224 C16.8799926,8.48799632 15.6880046,7.93600184 14.776,7.568 C13.8639954,7.19999816 12.9280048,7.016 11.968,7.016 C10.2079912,7.016 8.61600712,7.39199624 7.192,8.144 C5.76799288,8.89600376 5.056,10.0879918 5.056,11.72 C5.056,12.2000024 5.30399752,12.7519969 5.8,13.376 C6.29600248,14.0000031 6.87999664,14.5439977 7.552,15.008 C8.22400336,15.4720023 8.75199808,15.704 9.136,15.704 L9.76,15.656 C10.5920042,15.9120013 11.503995,16.3759966 12.496,17.048 C13.2640038,17.5920027 13.9759967,17.9919987 14.632,18.248 C15.2880033,18.5040013 16.1279949,18.632 17.152,18.632 C18.2400054,18.8560011 19.3359945,19.3199965 20.44,20.024 C21.5440055,20.7280035 22.4639963,21.583995 23.2,22.592 C23.9360037,23.600005 24.304,24.6479946 24.304,25.736 C24.304,26.2160024 24.2400006,26.6719978 24.112,27.104 C23.9839994,27.5360022 23.9040002,27.7999995 23.872,27.896 C23.679999,28.3120021 23.5360005,28.7919973 23.44,29.336 C23.0239979,30.8720077 22.712001,31.8879975 22.504,32.384 C22.295999,32.8800025 21.9200027,33.2879984 21.376,33.608 C20.8319973,33.9280016 19.9200064,34.183999 18.64,34.376 L18.352,34.664 C17.2639946,35.0800021 16.2560046,35.391999 15.328,35.6 C14.3999954,35.808001 13.440005,35.912 12.448,35.912 C11.2959942,35.912 9.98400736,35.8400007 8.512,35.696 C7.03999264,35.5519993 5.88800416,35.4000008 5.056,35.24 Z M19.504,7.4 C19.504,7.65600128 19.5679994,7.84799936 19.696,7.976 C19.8240006,8.10400064 20.0639982,8.21599952 20.416,8.312 L21.04,5.96 C21.04,5.70399872 19.944011,5.38400192 17.752,5 C15.559989,4.61599808 13.9840048,4.424 13.024,4.424 C12.9599997,4.45600016 12.8880004,4.52799944 12.808,4.64 C12.7279996,4.75200056 12.688,4.83999968 12.688,4.904 C12.688,5.2240016 12.9279976,5.384 13.408,5.384 L13.648,5.384 C14.1600026,5.384 14.4319998,5.25600128 14.464,5 C14.5280003,5.28800144 14.6719989,5.52799904 14.896,5.72 C15.1200011,5.91200096 15.3599987,6.008 15.616,6.008 C15.8400011,6.008 15.9919996,5.98400024 16.072,5.936 C16.1520004,5.88799976 16.2079998,5.7840008 16.24,5.624 L17.152,6.488 L18.064,5.624 L18.064,6.584 C18.1600005,6.55199984 18.3439986,6.48000056 18.616,6.368 C18.8880014,6.25599944 19.1839984,6.1200008 19.504,5.96 L19.84,6.008 C19.84,6.1680008 19.7840006,6.4079984 19.672,6.728 C19.5599994,7.0480016 19.504,7.27199936 19.504,7.4 Z M10.624,5 C10.6880003,5.06400032 10.7839994,5.12799968 10.912,5.192 L11.2,5.336 C11.392001,5.336 11.6159987,5.28000056 11.872,5.168 C12.1280013,5.05599944 12.256,4.9200008 12.256,4.76 C12.0959992,4.76 11.8560016,4.78399976 11.536,4.832 C11.2159984,4.88000024 10.9120014,4.93599968 10.624,5 Z M8.368,5.288 C7.95199792,5.288 7.44000304,5.4079988 6.832,5.648 C6.22399696,5.8880012 5.92,6.15199856 5.92,6.44 C5.92,6.50400032 6.04799872,6.536 6.304,6.536 C6.6240016,6.536 7.04799736,6.40000136 7.576,6.128 C8.10400264,5.85599864 8.368,5.57600144 8.368,5.288 Z M19.072,6.488 C18.9759995,6.52000016 18.8720006,6.59199944 18.76,6.704 C18.6479994,6.81600056 18.592,6.91999952 18.592,7.016 L18.64,7.112 L19.216,6.488 L19.072,6.488 Z M5.296,7.112 C4.91199808,7.24000064 4.56800152,7.48799816 4.264,7.856 C3.95999848,8.22400184 3.808,8.59999808 3.808,8.984 C4.25600224,8.984 4.61599864,8.80800176 4.888,8.456 C5.16000136,8.10399824 5.296,7.65600272 5.296,7.112 Z M4.096,9.368 C3.39199648,9.368 3.00800032,9.51199856 2.944,9.8 L4.096,9.8 L4.096,9.368 Z M2.608,10.376 C2.608,10.6000011 2.66399944,10.815999 2.776,11.024 C2.88800056,11.232001 3.0239992,11.336 3.184,11.336 C3.40800112,11.336 3.58399936,11.232001 3.712,11.024 C3.84000064,10.815999 3.904,10.6000011 3.904,10.376 L2.608,10.376 Z M2.56,12.104 C2.56,12.7440032 2.73599824,13.064 3.088,13.064 C3.44000176,13.064 3.616,12.7440032 3.616,12.104 L2.56,12.104 Z M3.184,13.64 C3.37600096,13.64 3.54399928,13.6000004 3.688,13.52 C3.83200072,13.4399996 3.904,13.3200008 3.904,13.16 L3.856,13.064 L2.944,13.592 L3.184,13.64 Z M3.184,14.504 L3.856,14.504 L3.856,14.216 L3.184,14.216 L3.184,14.504 Z M4.576,14.456 C4.51199968,14.456 4.42400056,14.5279993 4.312,14.672 C4.19999944,14.8160007 4.12800016,14.9679992 4.096,15.128 L4.432,15.176 C4.7520016,15.176 4.95999952,15.0640011 5.056,14.84 C4.99199968,14.7119994 4.91200048,14.6160003 4.816,14.552 C4.71999952,14.4879997 4.64000032,14.456 4.576,14.456 Z M4.624,15.896 C4.624,15.9600003 4.71999904,16.0319996 4.912,16.112 C5.10400096,16.1920004 5.23199968,16.2639997 5.296,16.328 C5.7760024,16.328 6.016,16.0080032 6.016,15.368 C5.72799856,15.368 5.43200152,15.4159995 5.128,15.512 C4.82399848,15.6080005 4.672,15.7199994 4.672,15.848 L4.624,15.896 Z M6.64,15.944 C6.4799992,15.944 6.37600024,16.0239992 6.328,16.184 C6.27999976,16.3440008 6.24000016,16.4559997 6.208,16.52 L7.504,16.52 C7.504,16.3599992 7.40800096,16.2240006 7.216,16.112 C7.02399904,15.9999994 6.83200096,15.944 6.64,15.944 Z M7.648,17.192 C7.74400048,17.2880005 7.94399848,17.4079993 8.248,17.552 C8.55200152,17.6960007 8.76799936,17.768 8.896,17.768 C8.96000032,17.768 9.0719992,17.6960007 9.232,17.552 C9.3920008,17.4079993 9.472,17.2880005 9.472,17.192 L9.136,16.904 L7.648,17.192 Z M9.712,17.432 C9.712,17.8160019 9.84799864,18.0399997 10.12,18.104 C10.3920014,18.1680003 10.7999973,18.2 11.344,18.2 C11.344,17.6879974 10.8000054,17.432 9.712,17.432 Z M12.688,18.968 C13.1040021,19.3840021 13.5199979,19.592 13.936,19.592 L14.224,19.544 C13.3919958,19.1599981 12.880001,18.968 12.688,18.968 Z M16,20.456 L16.24,20.12 L15.616,20.12 L16,20.456 Z M16.576,20.744 C16.8320013,21.0640016 17.1519981,21.3599986 17.536,21.632 C17.9200019,21.9040014 18.2879982,22.04 18.64,22.04 L18.64,21.608 L18.352,21.608 C18.4160003,21.5439997 18.4799997,21.4640005 18.544,21.368 C18.6080003,21.2719995 18.64,21.1920003 18.64,21.128 C18.64,20.6479976 18.2880035,20.408 17.584,20.408 L17.344,20.408 C16.8639976,20.408 16.6080002,20.5199989 16.576,20.744 Z M19.984,21.896 C19.4079971,21.896 19.12,22.0879981 19.12,22.472 L21.184,22.472 C21.184,22.0879981 20.784004,21.896 19.984,21.896 Z M21.568,24.584 C21.1199978,24.6480003 20.896,24.9039978 20.896,25.352 C21.1840014,25.352 21.4719986,25.2640009 21.76,25.088 C22.0480014,24.9119991 22.287999,24.7120011 22.48,24.488 C22.672001,24.2639989 22.768,24.1200003 22.768,24.056 C22.768,23.7359984 22.6400013,23.4960008 22.384,23.336 C22.1279987,23.1759992 21.8560014,23.096 21.568,23.096 C21.375999,23.1280002 21.0880019,23.2079994 20.704,23.336 C20.3199981,23.4640006 20.128,23.5759995 20.128,23.672 L20.128,24.008 L21.568,24.584 Z M21.28,26.216 C21.28,26.5360016 21.5039978,26.696 21.952,26.696 C22.560003,26.696 22.9199994,26.5600014 23.032,26.288 C23.1440006,26.0159986 23.2,25.5120037 23.2,24.776 C22.8799984,24.776 22.4800024,24.9439983 22,25.28 C21.5199976,25.6160017 21.28,25.9279986 21.28,26.216 Z M21.568,29.048 C21.1199978,29.1120003 20.896,29.3519979 20.896,29.768 C21.4720029,29.768 21.8959986,29.5440022 22.168,29.096 C22.4400014,28.6479978 22.576,28.1040032 22.576,27.464 C22.3519989,27.464 22.0800016,27.5519991 21.76,27.728 C21.4399984,27.9040009 21.28,28.087999 21.28,28.28 C21.28,28.472001 21.375999,28.7279984 21.568,29.048 Z M12.688,33.176 C12.688,33.5280018 12.8479984,33.8239988 13.168,34.064 C13.4880016,34.3040012 13.8239982,34.424 14.176,34.424 L14.32,34.424 C14.7680022,34.424 15.0239997,34.2960013 15.088,34.04 C16.880009,33.7839987 18.375994,33.4320022 19.576,32.984 C20.776006,32.5359978 21.4399994,31.7040061 21.568,30.488 C21.3439989,30.295999 21.0400019,30.2 20.656,30.2 C20.5279994,30.2 20.3360013,30.4719973 20.08,31.016 C19.8559989,31.5280026 19.6240012,31.9279986 19.384,32.216 C19.1439988,32.5040014 18.8480018,32.648 18.496,32.648 C18.4319997,32.648 18.3200008,32.5920006 18.16,32.48 C17.9999992,32.3679994 17.8560006,32.312 17.728,32.312 C17.2799978,32.312 16.6400042,32.3759994 15.808,32.504 C15.5839989,32.5360002 15.3440013,32.5679998 15.088,32.6 C14.8319987,32.6320002 14.5760013,32.648 14.32,32.648 C13.7439971,32.648 13.4080005,32.6320002 13.312,32.6 C13.2159995,32.6640003 13.0960007,32.7519994 12.952,32.864 C12.8079993,32.9760006 12.7200002,33.0799995 12.688,33.176 Z M3.472,32.984 C3.472,33.3040016 3.5519992,33.5199994 3.712,33.632 C3.8720008,33.7440006 4.1119984,33.8 4.432,33.8 C4.65600112,33.8 4.86399904,33.7120009 5.056,33.536 C5.24800096,33.3599991 5.344,33.0800019 5.344,32.696 L5.296,32.6 L4.096,33.176 L3.856,33.08 L3.856,32.888 C3.92000032,32.8559998 4.151998,32.7520009 4.552,32.576 C4.952002,32.3999991 5.19999952,32.2000011 5.296,31.976 C5.26399984,31.9119997 5.16000088,31.8400004 4.984,31.76 C4.80799912,31.6799996 4.6400008,31.64 4.48,31.64 C4.1599984,31.64 3.91200088,31.7999984 3.736,32.12 C3.55999912,32.4400016 3.472,32.7279987 3.472,32.984 Z M6.832,32.312 C6.38399776,32.312 6.05600104,32.4479986 5.848,32.72 C5.63999896,32.9920014 5.536,33.3359979 5.536,33.752 L6.208,33.752 L5.92,33.512 C6.14400112,33.3519992 6.35199904,33.1440013 6.544,32.888 C6.73600096,32.6319987 6.832,32.4400006 6.832,32.312 Z M6.832,33.752 C6.92800048,33.7840002 7.07999896,33.8479995 7.288,33.944 C7.49600104,34.0400005 7.74399856,34.088 8.032,34.088 C8.38400176,34.088 8.67199888,33.9280016 8.896,33.608 C9.12000112,33.2879984 9.232,32.9360019 9.232,32.552 C7.631992,32.552 6.832,32.951996 6.832,33.752 Z M11.2,32.888 C10.5279966,32.888 10.096001,32.991999 9.904,33.2 C9.71199904,33.408001 9.616,33.7999971 9.616,34.376 L12.112,34.376 L12.256,34.232 C12.3200003,34.1679997 12.3679998,34.1040003 12.4,34.04 C12.4,33.5919978 12.304001,33.2880008 12.112,33.128 C11.919999,32.9679992 11.6160021,32.888 11.2,32.888 Z M14.368,33.464 C14.4320003,33.464 14.559999,33.559999 14.752,33.752 L14.224,33.752 L14.224,33.512 L14.368,33.464 Z M27.712,24.488 C27.712,22.887992 27.9999971,21.1280096 28.576,19.208 C29.1520029,17.2879904 29.8559958,15.6400069 30.688,14.264 L30.784,14.312 C30.976001,14.312 31.375997,14.1040021 31.984,13.688 C32.5600029,13.3039981 32.9279992,13.112 33.088,13.112 C33.3120011,13.0479997 33.8959953,12.9040011 34.84,12.68 C35.7840047,12.4559989 36.6719958,12.344 37.504,12.344 L37.504,12.776 C37.9520022,12.6159992 38.3599982,12.5200002 38.728,12.488 C39.0960018,12.4559998 39.4719981,12.44 39.856,12.44 C40.848005,12.44 41.8159953,12.535999 42.76,12.728 C43.7040047,12.920001 44.176,13.2559976 44.176,13.736 C44.976004,13.736 45.6079977,14.0159972 46.072,14.576 C46.5360023,15.1360028 46.9919978,15.8959952 47.44,16.856 C47.6000008,17.2080018 47.7679991,17.5279986 47.944,17.816 C48.1200009,18.1040014 48.2879992,18.2959995 48.448,18.392 L48.448,22.52 L47.584,23.144 L47.824,23.432 C46.9599957,24.1040034 45.0720146,24.44 42.16,24.44 L39.664,24.44 C38.063992,24.44 37.0160025,24.4240002 36.52,24.392 C36.0239975,24.3599998 35.0560072,24.2320011 33.616,24.008 C33.5839998,23.815999 33.4880008,23.72 33.328,23.72 C33.2639997,23.72 33.1840005,23.7359998 33.088,23.768 C32.9919995,23.8000002 32.8960005,23.816 32.8,23.816 C32.8,24.7440046 32.9199988,25.7679944 33.16,26.888 C33.4000012,28.0080056 33.7599976,28.8239974 34.24,29.336 C34.4960013,29.6240014 35.1999942,29.9759979 36.352,30.392 C36.9280029,30.584001 37.311999,30.7279995 37.504,30.824 C38.0800029,31.2400021 38.5759979,31.448 38.992,31.448 C39.7280037,31.448 40.5279957,31.352001 41.392,31.16 C42.2560043,30.967999 42.7519994,30.8560002 42.88,30.824 C44.4160077,30.4079979 45.6479954,30.2 46.576,30.2 C46.9920021,30.2 47.2719993,30.3839982 47.416,30.752 C47.5600007,31.1200018 47.632,31.5919971 47.632,32.168 C47.632,32.776003 47.5840005,33.1599992 47.488,33.32 C47.3919995,33.4800008 47.2160013,33.5839998 46.96,33.632 C46.7039987,33.6800002 46.4960008,33.8159989 46.336,34.04 C46.143999,34.1040003 44.2720178,34.4239971 40.72,35 C39.3759933,35 38.1840052,34.9680003 37.144,34.904 C36.1039948,34.8399997 35.1360045,34.6640014 34.24,34.376 C33.247995,34.0559984 32.248005,33.3040059 31.24,32.12 C30.231995,30.9359941 29.3920034,29.6240072 28.72,28.184 C28.0479966,26.7439928 27.712,25.5120051 27.712,24.488 Z M45.7595792,15.1405711 C45.7535041,15.2303093 45.681645,15.2981183 45.544,15.344 C45.3999993,15.3920002 45.2800005,15.416 45.184,15.416 C44.9279987,15.3839998 44.6320017,15.2560011 44.296,15.032 C43.9599983,14.8079989 43.792,14.5520014 43.792,14.264 C42.8639954,14.264 42.4,14.0400022 42.4,13.592 C42.3359997,13.592 42.208001,13.7039989 42.016,13.928 C41.823999,14.1520011 41.4720026,14.264 40.96,14.264 C40.7999992,14.264 40.6400008,14.2000006 40.48,14.072 C40.3199992,13.9439994 40.1120013,13.88 39.856,13.88 L39.232,13.928 C39.2960003,13.9600002 39.4479988,14.1679981 39.688,14.552 C39.9280012,14.9360019 40.1279992,15.1439998 40.288,15.176 C40.3520003,15.176 40.4719991,15.1200006 40.648,15.008 C40.8240009,14.8959994 40.9759994,14.84 41.104,14.84 C41.2320006,14.8720002 41.4719982,14.9599993 41.824,15.104 C42.1760018,15.2480007 42.5279982,15.32 42.88,15.32 C42.88,15.5760013 43.1679971,15.9599974 43.744,16.472 C44.3200029,16.9840026 44.703999,17.24 44.896,17.24 C45.088001,17.24 45.3439984,17.1760006 45.664,17.048 C45.9840016,16.9199994 46.144,16.7760008 46.144,16.616 C46.144,16.423999 46.0800006,16.1440018 45.952,15.776 C45.8268241,15.4161193 45.7628559,15.2016078 45.7600935,15.1324592 L45.7595792,15.1405711 Z M29.968,25.256 C30.2560014,25.256 30.5519985,25.1840007 30.856,25.04 C31.1600015,24.8959993 31.312,24.6960013 31.312,24.44 C31.312,24.3759997 31.2640005,24.2720007 31.168,24.128 C31.0719995,23.9839993 31.024,23.8480006 31.024,23.72 C31.0880003,23.4959989 31.1999992,23.2160017 31.36,22.88 C31.5200008,22.5439983 31.6,22.2000018 31.6,21.848 C31.6,21.5919987 31.5440006,21.4080006 31.432,21.296 C31.3199994,21.1839994 31.160001,21.0800005 30.952,20.984 C30.743999,20.8879995 30.64,20.7760006 30.64,20.648 C30.64,20.5199994 30.743999,20.2240023 30.952,19.76 C31.160001,19.2959977 31.264,18.9840008 31.264,18.824 C31.264,18.5039984 31.567997,17.9760037 32.176,17.24 C32.5280018,16.7599976 32.799999,16.3760014 32.992,16.088 C33.184001,15.7999986 33.28,15.5120014 33.28,15.224 C33.4080006,15.224 33.5839989,15.2559997 33.808,15.32 C34.0320011,15.3840003 34.2559989,15.416 34.48,15.416 C34.5760005,15.416 34.6399998,15.3280009 34.672,15.152 C34.7040002,14.9759991 34.7519997,14.8720002 34.816,14.84 C35.0720013,14.7439995 35.5839962,14.696 36.352,14.696 C37.0880037,14.6639998 37.6479981,14.6240002 38.032,14.576 C38.4160019,14.5279998 38.6239998,14.4240008 38.656,14.264 C38.3039982,14.1039992 37.9680016,14.0000002 37.648,13.952 C37.3279984,13.9039998 36.9120026,13.88 36.4,13.88 C34.2239891,13.88 32.5680057,14.6159926 31.432,16.088 C30.2959943,17.5600074 29.728,19.4159888 29.728,21.656 L31.264,21.656 L31.264,21.944 L29.488,23.72 L29.488,24.632 L30.064,24.296 L29.488,25.208 L29.968,25.256 Z M32.752,19.64 C32.9120008,19.9600016 33.8479914,20.1759994 35.56,20.288 C37.2720086,20.4000006 38.7039942,20.456 39.856,20.456 C40.4320029,20.456 41.1999952,20.3920006 42.16,20.264 C43.0560045,20.1359994 43.7919971,20.072 44.368,20.072 C44.368,19.9119992 44.2560011,19.5840025 44.032,19.088 C43.8079989,18.5919975 43.6320006,18.344 43.504,18.344 L43.408,18.392 C43.1839989,17.7199966 42.472006,17.1600022 41.272,16.712 C40.071994,16.2639978 39.0560042,16.04 38.224,16.04 C36.9439936,16.04 35.8240048,16.343997 34.864,16.952 C33.9039952,17.560003 33.2000022,18.4559941 32.752,19.64 Z M46.144,20.648 C46.144,21.1280024 45.9840016,21.4399993 45.664,21.584 C45.3439984,21.7280007 44.880003,21.8 44.272,21.8 C43.7599974,21.8320002 43.3760013,21.8959995 43.12,21.992 C42.8639987,22.0880005 42.736,22.2959984 42.736,22.616 C43.7920053,22.616 44.623997,22.5840003 45.232,22.52 C45.840003,22.4559997 46.2079994,22.2640016 46.336,21.944 C46.4960008,22.2000013 46.7199986,22.328 47.008,22.328 C47.008,22.0719987 46.9520006,21.7920015 46.84,21.488 C46.7279994,21.1839985 46.672,20.9520008 46.672,20.792 C46.672,20.6639994 46.7439993,20.5520005 46.888,20.456 C47.0320007,20.3599995 47.1439996,20.2480006 47.224,20.12 C47.3040004,19.9919994 47.344,19.7360019 47.344,19.352 C47.344,18.1039938 46.9760037,17.48 46.24,17.48 C45.9199984,17.48 45.7200004,17.5679991 45.64,17.744 C45.5599996,17.9200009 45.52,18.2479976 45.52,18.728 C45.8720018,19.7840053 46.0799997,20.3599995 46.144,20.456 L46.144,20.648 Z M33.136,21.224 C32.8479986,21.224 32.600001,21.3359989 32.392,21.56 C32.183999,21.7840011 32.08,22.0399986 32.08,22.328 C32.4960021,22.328 32.7759993,22.2480008 32.92,22.088 C33.0640007,21.9279992 33.136,21.6400021 33.136,21.224 Z M34.048,21.656 C33.9839997,21.656 33.8000015,21.7999986 33.496,22.088 C33.1919985,22.3760014 32.944001,22.6319989 32.752,22.856 L33.76,22.664 C33.8240003,22.664 34.0399982,22.6240004 34.408,22.544 C34.7760018,22.4639996 35.2159974,22.2640016 35.728,21.944 C35.6319995,21.9119998 35.1360045,21.8160008 34.24,21.656 L34.048,21.656 Z M35.728,22.52 C36.3680032,22.7440011 36.9279976,22.856 37.408,22.856 C37.6960014,22.856 37.943999,22.760001 38.152,22.568 C38.360001,22.375999 38.464,22.1360014 38.464,21.848 C36.863992,21.848 35.9520011,22.0719978 35.728,22.52 Z M40.288,22.232 C39.8399978,22.232 39.4000022,22.2879994 38.968,22.4 C38.5359978,22.5120006 38.32,22.7119986 38.32,23 L38.368,23.144 C38.4320003,23.144 38.9999946,23.1040004 40.072,23.024 C41.1440054,22.9439996 41.7599992,22.6800022 41.92,22.232 L40.288,22.232 Z M31.072,25.688 C30.463997,25.688 30.0800008,25.7759991 29.92,25.952 C29.7599992,26.1280009 29.68,26.5359968 29.68,27.176 C30.0640019,27.176 30.3919986,27.0240015 30.664,26.72 C30.9360014,26.4159985 31.072,26.0720019 31.072,25.688 Z M31.264,26.36 C31.1999997,26.4560005 31.0320014,26.703998 30.76,27.104 C30.4879986,27.504002 30.352,27.8959981 30.352,28.28 C31.2800046,28.28 31.8879986,28.1520013 32.176,27.896 C32.0799995,27.6719989 31.9200011,27.4080015 31.696,27.104 C31.4719989,26.7999985 31.3280003,26.552001 31.264,26.36 Z M30.688,29.048 C30.8480008,29.1440005 30.9759995,29.3279986 31.072,29.6 C31.1680005,29.8720014 31.2319998,30.0879992 31.264,30.248 C32.0000037,29.8639981 32.368,29.2560042 32.368,28.424 C31.4719955,28.424 30.9120011,28.6319979 30.688,29.048 Z M33.088,31.736 C33.4720019,31.1599971 33.664,30.7920008 33.664,30.632 L33.616,30.488 L31.888,30.248 L31.552,30.488 L33.088,31.736 Z M33.616,32.024 C33.6480002,32.0880003 33.6959997,32.1439998 33.76,32.192 C33.8240003,32.2400002 33.8879997,32.2799998 33.952,32.312 C34.2400014,32.2479997 34.5599982,32.1040011 34.912,31.88 C35.2640018,31.6559989 35.44,31.4960005 35.44,31.4 C35.44,31.2399992 35.3840006,31.1040006 35.272,30.992 C35.1599994,30.8799994 35.0720003,30.824 35.008,30.824 C34.7199986,30.824 34.4160016,30.9599986 34.096,31.232 C33.7759984,31.5040014 33.616,31.7679987 33.616,32.024 Z M38.08,33.224 C38.2400008,33.3840008 38.3359998,33.464 38.368,33.464 C38.9120027,33.464 39.5519963,33.4000006 40.288,33.272 C41.0240037,33.1439994 41.487999,33.0640002 41.68,33.032 C43.0240067,32.7759987 43.9039979,32.648 44.32,32.648 L44.896,32.888 C45.2800019,32.888 45.6319984,32.8080008 45.952,32.648 C46.2720016,32.4879992 46.432,32.2320018 46.432,31.88 C45.7919968,31.88 44.9280054,32.0079987 43.84,32.264 C43.6799992,32.2960002 43.4080019,32.3599995 43.024,32.456 C42.6399981,32.5520005 42.2720018,32.6159998 41.92,32.648 C41.2799968,32.648 40.6000036,32.6719998 39.88,32.72 C39.1599964,32.7680002 38.6560014,32.8239997 38.368,32.888 L38.08,33.224 Z M60.64,32.12 C61.2800032,32.3440011 61.6,32.551999 61.6,32.744 C61.6,32.936001 61.3440026,33.6559938 60.832,34.904 C60.5439986,35.4800029 60.4,35.8159995 60.4,35.912 L59.776,36.152 L59.776,35.768 C59.3919981,35.768 59.0400016,35.7839998 58.72,35.816 C58.3999984,35.8480002 58.0960014,35.864 57.808,35.864 C57.3599978,35.864 57.0160012,35.7760009 56.776,35.6 C56.5359988,35.4239991 56.416,35.0640027 56.416,34.52 C55.5839958,34.52 54.9600021,34.216003 54.544,33.608 C54.1279979,32.999997 53.6960022,32.0880061 53.248,30.872 C53.0239989,27.9919856 52.8720004,25.0400151 52.792,22.016 C52.7119996,18.9919849 52.672,15.4320205 52.672,11.336 L52.672,8.264 C52.672,5.47998608 52.7839989,3.14400944 53.008,1.256 C53.5520027,0.96799856 54.2399958,0.77600048 55.072,0.68 C55.2000006,0.64799984 55.4879978,0.5920004 55.936,0.512 C56.3840022,0.4319996 56.7839982,0.29600096 57.136,0.104 L57.28,0.056 C57.5680014,0.056 57.712,0.23199824 57.712,0.584 C57.712,3.1440128 57.616001,7.01597408 57.424,12.2 C57.2959994,14.7280126 57.2000003,17.3039869 57.136,19.928 C57.136,20.6320035 57.0720006,21.5919939 56.944,22.808 C56.9119998,23.0640013 56.8800002,23.3999979 56.848,23.816 C56.8159998,24.2320021 56.8,24.7279971 56.8,25.304 C56.8,27.3840104 57.0559974,29.0399938 57.568,30.272 C58.0800026,31.5040062 59.1039923,32.12 60.64,32.12 Z M55.984,2.216 C55.1519958,2.216 54.6080013,2.415998 54.352,2.816 C54.0959987,3.216002 53.968,3.87999536 53.968,4.808 L54.64,4.808 C54.64,4.87200032 54.6559998,4.91999984 54.688,4.952 C54.7200002,4.98400016 54.736,5.01599984 54.736,5.048 C54.736,5.11200032 54.6640007,5.1839996 54.52,5.264 C54.3759993,5.3440004 54.2560005,5.384 54.16,5.384 L54.16,7.16 C54.2560005,7.03199936 54.4559985,6.768002 54.76,6.368 C55.0640015,5.967998 55.2639995,5.75200016 55.36,5.72 C55.3279998,5.81600048 55.2640005,6.01599848 55.168,6.32 C55.0719995,6.62400152 54.928001,6.90399872 54.736,7.16 C54.7680002,7.16 54.8319995,7.16799992 54.928,7.184 C55.0240005,7.20000008 55.1359994,7.208 55.264,7.208 C55.7440024,7.208 55.984,7.11200096 55.984,6.92 L55.984,2.216 Z M54.16,17 C54.2560005,17.1600008 54.5599974,17.24 55.072,17.24 C54.9759995,17.3680006 54.8480008,17.4719996 54.688,17.552 C54.5279992,17.6320004 54.4000005,17.7199995 54.304,17.816 C54.2079995,17.9120005 54.16,18.055999 54.16,18.248 C54.16,18.5040013 54.2239994,18.7599987 54.352,19.016 C54.4800006,19.2720013 54.544,19.5759982 54.544,19.928 L55.648,19.928 L55.648,18.392 L55.072,18.392 C55.4560019,17.8799974 55.648,17.1600046 55.648,16.232 C55.648,16.039999 55.6000005,15.7840016 55.504,15.464 C55.4079995,15.1439984 55.36,14.888001 55.36,14.696 L55.648,13.496 C55.8720011,12.7599963 55.984,12.0240037 55.984,11.288 C55.9519998,11.1919995 55.9040003,11.0880006 55.84,10.976 C55.7759997,10.8639994 55.7120003,10.7760003 55.648,10.712 C55.648,11.1600022 55.4560019,11.384 55.072,11.384 L54.736,11.288 C54.9600011,11.1919995 55.1039997,11.048001 55.168,10.856 C55.2320003,10.663999 55.264,10.4240014 55.264,10.136 L55.984,10.136 L55.984,8.36 C55.791999,8.58400112 55.5280017,8.84799848 55.192,9.152 C54.8559983,9.45600152 54.6560003,9.608 54.592,9.608 L54.448,9.56 C55.056003,8.88799664 55.455999,8.29600256 55.648,7.784 C55.2959982,7.784 54.9120021,7.8239996 54.496,7.904 C54.0799979,7.9840004 53.872,8.16799856 53.872,8.456 C53.872,9.19200368 53.967999,9.70399856 54.16,9.992 C54.352001,10.2800014 54.448,10.4399998 54.448,10.472 C54.448,10.5360003 54.352001,10.7839978 54.16,11.216 C53.967999,11.6480022 53.872,11.9759989 53.872,12.2 C53.9360003,12.1679998 54.0239994,12.1120004 54.136,12.032 C54.2480006,11.9519996 54.3519995,11.912 54.448,11.912 C54.5120003,11.912 54.5759997,11.9519996 54.64,12.032 C54.7040003,12.1120004 54.736,12.1679998 54.736,12.2 C54.6399995,12.2960005 54.5280006,12.4559989 54.4,12.68 C54.2719994,12.9040011 54.1920002,13.0799994 54.16,13.208 C54.16,13.400001 54.2479991,13.5199998 54.424,13.568 C54.6000009,13.6160002 54.7039998,13.6559998 54.736,13.688 C54.3839982,13.7840005 54.1680004,14.0399979 54.088,14.456 C54.0079996,14.8720021 53.968,15.3359974 53.968,15.848 C54.2240013,15.848 54.4319992,15.7760007 54.592,15.632 C54.7520008,15.4879993 54.8639997,15.416 54.928,15.416 L55.072,15.464 C54.9759995,15.7200013 54.824001,16.0079984 54.616,16.328 C54.407999,16.6480016 54.2560005,16.8719994 54.16,17 Z M55.696,20.456 C55.2479978,20.456 54.928001,20.5839987 54.736,20.84 C54.543999,21.0960013 54.448,21.4799974 54.448,21.992 C54.5120003,21.9279997 54.6799986,21.8160008 54.952,21.656 C55.2240014,21.4959992 55.4159994,21.320001 55.528,21.128 C55.6400006,20.935999 55.696,20.7120013 55.696,20.456 Z M55.36,32.072 C55.5200008,32.072 55.7119989,31.7360034 55.936,31.064 C56.1600011,30.3919966 56.272,29.9280013 56.272,29.672 C56.272,29.3519984 56.2320004,29.1440005 56.152,29.048 C56.0719996,28.9519995 55.9040013,28.904 55.648,28.904 L55.648,24.056 L55.36,23.768 C55.6160013,23.768 55.744,23.1440062 55.744,21.896 C55.4239984,21.896 55.1200014,22.0639983 54.832,22.4 C54.5439986,22.7360017 54.4,23.0799982 54.4,23.432 C54.4,23.4640002 54.4559994,23.5199996 54.568,23.6 C54.6800006,23.6800004 54.736,23.7359998 54.736,23.768 L54.448,24.056 L54.448,26.12 C54.6720011,26.1840003 54.784,26.3919982 54.784,26.744 C54.784,26.9680011 54.7360005,27.3199976 54.64,27.8 C54.5119994,28.1200016 54.448,28.4719981 54.448,28.856 C54.448,29.2080018 54.6079984,29.5439984 54.928,29.864 C55.2480016,30.1840016 55.408,30.4559989 55.408,30.68 C55.408,30.7760005 55.312001,30.9439988 55.12,31.184 C54.927999,31.4240012 54.8000003,31.6239992 54.736,31.784 C54.7680002,31.784 54.8639992,31.8319995 55.024,31.928 C55.1840008,32.0240005 55.2959997,32.072 55.36,32.072 Z M59.2,34.136 C59.2320002,34.1039998 59.3039994,34.0400005 59.416,33.944 C59.5280006,33.8479995 59.584,33.7360006 59.584,33.608 C59.584,33.5439997 59.3280026,33.3840013 58.816,33.128 C58.3039974,32.8719987 57.9360011,32.6960005 57.712,32.6 C57.6159995,32.6 57.4560011,32.6559994 57.232,32.768 C57.0079989,32.8800006 56.7680013,32.936 56.512,32.936 C56.6080005,32.9039998 56.7279993,32.8080008 56.872,32.648 C57.0160007,32.4879992 57.1039998,32.3920002 57.136,32.36 C57.136,32.1359989 57.0800006,31.9120011 56.968,31.688 C56.8559994,31.4639989 56.704001,31.3040005 56.512,31.208 C56.4159995,31.208 56.264001,31.3919982 56.056,31.76 C55.847999,32.1280018 55.7120003,32.407999 55.648,32.6 C55.648,33.2720034 56.047996,33.7999981 56.848,34.184 C57.648004,34.5680019 58.3839966,34.76 59.056,34.76 C59.248001,34.76 59.4079994,34.6320013 59.536,34.376 L59.2,34.136 Z M78.592,11.528 C78.6880005,11.528 78.8239991,11.5999993 79,11.744 C79.1760009,11.8880007 79.264,12.0079995 79.264,12.104 L79.264,15.656 L78.928,15.944 L76.648,15.944 C75.3519935,15.944 74.1440056,16.039999 73.024,16.232 L73.072,16.568 C73.072,16.9840021 72.9600011,17.495997 72.736,18.104 C72.543999,18.7440032 72.448,19.2079986 72.448,19.496 C72.448,19.5600003 72.4879996,19.6319996 72.568,19.712 C72.6480004,19.7920004 72.7039998,19.832 72.736,19.832 L72.736,24.824 C72.9600011,25.0480011 73.072,25.5439962 73.072,26.312 L73.024,27.512 C73.1840008,27.5440002 73.2799998,27.9199964 73.312,28.64 C73.3440002,29.3600036 73.5919977,30.0079971 74.056,30.584 C74.5200023,31.1600029 75.455993,31.5119994 76.864,31.64 C76.9600005,31.64 77.1839982,31.6639998 77.536,31.712 C77.8880018,31.7600002 78.159999,31.8719991 78.352,32.048 C78.544001,32.2240009 78.64,32.4879982 78.64,32.84 C78.64,33.4160029 78.5920005,33.8479986 78.496,34.136 C78.3999995,34.4240014 78.2240013,34.7759979 77.968,35.192 L77.488,36.056 C76.9439973,36.0239998 76.3360034,35.912001 75.664,35.72 C74.9919966,35.527999 74.352003,35.336001 73.744,35.144 C72.2079923,34.6319974 71.1040034,34.3600002 70.432,34.328 C69.7919968,34.328 69.368001,33.632007 69.16,32.24 C68.951999,30.847993 68.848,29.5120064 68.848,28.232 C68.848,27.3359955 68.9279992,26.488004 69.088,25.688 C69.1200002,25.4639989 69.1519998,25.2080014 69.184,24.92 C69.2160002,24.6319986 69.232,24.3120018 69.232,23.96 C69.232,22.4239923 69.0240021,19.8480181 68.608,16.232 C68.3199986,16.1999998 68.0400014,16.1520003 67.768,16.088 C67.4959986,16.0239997 67.264001,15.9760002 67.072,15.944 C66.2399958,15.7199989 65.6480018,15.608 65.296,15.608 C65.1359992,15.608 64.9440011,15.3760023 64.72,14.912 C64.4959989,14.4479977 64.384,14.0720014 64.384,13.784 C64.384,13.1439968 64.5919979,12.728001 65.008,12.536 C65.4240021,12.343999 66.0159962,12.2320002 66.784,12.2 C67.2000021,12.2 67.503999,12.1760002 67.696,12.128 C67.888001,12.0799998 67.9999998,11.9760008 68.032,11.816 C68.032,11.0799963 68.0879994,10.2960042 68.2,9.464 C68.3120006,8.63199584 68.4479992,8.1360008 68.608,7.976 C69.0240021,8.1360008 69.232,8.88799328 69.232,10.232 L69.184,11.528 L69.472,11.816 C69.5360003,11.7839998 69.9039966,11.6080016 70.576,11.288 C71.2480034,10.9679984 71.584,10.6800013 71.584,10.424 L71.536,10.04 C71.536,9.94399952 71.5839995,9.59200304 71.68,8.984 C71.7760005,8.37599696 71.824,7.92800144 71.824,7.64 L71.728,7.64 C71.5679992,7.64 71.1680032,7.79199848 70.528,8.096 C69.8879968,8.40000152 69.5360003,8.552 69.472,8.552 C69.6320008,8.3919992 70.0319968,8.08800224 70.672,7.64 C70.0319968,7.51199936 69.5360018,7.32000128 69.184,7.064 C69.4720014,6.83999888 69.7679985,6.6880004 70.072,6.608 C70.3760015,6.5279996 70.7519978,6.47200016 71.2,6.44 C71.7760029,6.44 72.2879978,6.3600008 72.736,6.2 C72.736,6.32800064 72.831999,6.47999912 73.024,6.656 C73.216001,6.83200088 73.312,6.96799952 73.312,7.064 C73.2799998,7.19200064 73.2320003,7.3759988 73.168,7.616 C73.1039997,7.8560012 73.0560002,8.07199904 73.024,8.264 C73.024,9.35200544 73.1359989,10.1519974 73.36,10.664 C73.5840011,11.1760026 73.9279977,11.4959994 74.392,11.624 C74.8560023,11.7520006 75.583995,11.816 76.576,11.816 C76.8000011,11.816 77.1199979,11.7680005 77.536,11.672 C77.9520021,11.5759995 78.3039986,11.528 78.592,11.528 Z M73.024,12.968 C72.7999989,12.8719995 72.4960019,12.6000022 72.112,12.152 C72.0799998,12.1199998 71.9760009,12.000001 71.8,11.792 C71.6239991,11.583999 71.4560008,11.48 71.296,11.48 C70.8479978,11.48 70.624,11.6879979 70.624,12.104 L70.96,12.104 C70.7039987,12.5200021 70.2240035,12.8399989 69.52,13.064 C68.8159965,13.2880011 67.968005,13.4799992 66.976,13.64 C66.6239982,13.7040003 66.3120014,13.7679997 66.04,13.832 C65.7679986,13.8960003 65.632,13.9599997 65.632,14.024 C65.632,14.216001 65.9919964,14.3919992 66.712,14.552 C67.4320036,14.7120008 67.9519984,14.792 68.272,14.792 L70.96,12.68 L71.584,12.68 L70.048,14.168 L70.048,14.456 L73.024,12.968 Z M74.512,12.968 C74.2559987,12.968 74.0400009,13.0399993 73.864,13.184 C73.6879991,13.3280007 73.504001,13.5599984 73.312,13.88 C73.4720008,13.8479998 73.7359982,13.728001 74.104,13.52 C74.4720018,13.311999 74.7039995,13.1280008 74.8,12.968 L74.512,12.968 Z M78.064,13.304 L76.624,13.256 L75.136,13.304 C74.8799987,13.3360002 74.5120024,13.5039985 74.032,13.808 C73.5519976,14.1120015 73.312,14.3279994 73.312,14.456 L73.312,14.84 C73.4720008,14.84 73.7759978,14.7120013 74.224,14.456 C74.6720022,14.1999987 74.9759992,14.0080006 75.136,13.88 L74.512,14.792 C74.8960019,14.792 75.4399965,14.7280006 76.144,14.6 C76.336001,14.5679998 76.5599987,14.5360002 76.816,14.504 C77.0720013,14.4719998 77.3759982,14.456 77.728,14.456 L78.064,13.304 Z M71.824,14.456 L71.824,14.168 C71.6639992,14.2640005 71.5120007,14.3519996 71.368,14.432 C71.2239993,14.5120004 71.0880006,14.5999995 70.96,14.696 C69.9359949,15.2080026 69.424,15.6239984 69.424,15.944 L70.048,15.944 L71.824,14.456 Z M71.248,16.232 C70.8639981,16.232 70.5200015,16.3999983 70.216,16.736 C69.9119985,17.0720017 69.76,17.3839986 69.76,17.672 L69.76,17.912 C69.76,18.3600022 69.855999,18.5999998 70.048,18.632 C70.4000018,18.3759987 70.6959988,18.0640018 70.936,17.696 C71.1760012,17.3279982 71.296,16.9520019 71.296,16.568 L71.248,16.232 Z M73.8888197,32.8391698 C73.9202734,32.8068999 73.936,32.7431773 73.936,32.648 C73.936,32.455999 73.7600018,32.2880007 73.408,32.144 C73.0559982,31.9999993 72.784001,31.928 72.592,31.928 C72.399999,31.928 72.1360017,31.9759995 71.8,32.072 C71.4639983,32.1680005 71.1840011,32.216 70.96,32.216 C71.0240003,32.0879994 71.2959976,31.920001 71.776,31.712 C72.2560024,31.503999 72.5759992,31.3680003 72.736,31.304 L72.784,31.208 C72.784,30.9199986 72.6720011,30.776 72.448,30.776 L72.016,30.824 L72.16,29 C72.0959997,28.4559973 72.0000006,27.888003 71.872,27.296 C71.7439994,26.703997 71.6480003,26.2800013 71.584,26.024 L71.248,25.736 L71.584,25.448 L71.632,24.344 C71.632,23.6079963 71.5680006,22.6000064 71.44,21.32 C71.2799992,20.1999944 71.2,19.1600048 71.2,18.2 C70.8159981,18.2 70.528001,18.4319977 70.336,18.896 C70.143999,19.3600023 70.048,19.8159978 70.048,20.264 C70.048,20.7120022 70.0959995,20.9759996 70.192,21.056 C70.2880005,21.1360004 70.336,21.2079997 70.336,21.272 C70.336,21.4000006 70.2800006,21.5439992 70.168,21.704 C70.0559994,21.8640008 70,22.0879986 70,22.376 C70,23.0480034 70.1599984,23.384 70.48,23.384 L70.576,23.384 C70.4479994,23.5120006 70.3280006,23.7999978 70.216,24.248 C70.1039994,24.6960022 70.048,25.0959982 70.048,25.448 C70.2720011,25.448 70.384,25.5279992 70.384,25.688 C70.384,25.8160006 70.2720011,26.0319985 70.048,26.336 C69.8239989,26.6400015 69.712,26.8079998 69.712,26.84 C69.712,27.2240019 69.7919992,27.5759984 69.952,27.896 C70.1120008,28.2160016 70.192,28.4399994 70.192,28.568 C70.192,28.8240013 70.0480014,29.1599979 69.76,29.576 C69.7920002,29.6720005 69.8719994,29.8399988 70,30.08 C70.1280006,30.3200012 70.2399995,30.44 70.336,30.44 C70.528001,30.44 70.7599986,30.4080003 71.032,30.344 C71.3040014,30.2799997 71.4879995,30.2160003 71.584,30.152 C71.4559994,30.344001 71.2080018,30.535999 70.84,30.728 C70.4719982,30.920001 70.2080008,31.0319998 70.048,31.064 C70.048,32.5680075 70.9759907,33.32 72.832,33.32 C72.832,33.9920034 73.0719976,34.328 73.552,34.328 C73.7120008,34.328 73.887999,34.2720006 74.08,34.16 C74.272001,34.0479994 74.4159995,33.896001 74.512,33.704 C74.5760003,33.704 74.6239998,33.7279998 74.656,33.776 C74.6880002,33.8240002 74.7359997,33.848 74.8,33.848 L74.8,34.376 C75.5680038,34.376 76.255997,33.9600042 76.864,33.128 C76.7999997,32.7439981 76.1120066,32.552 74.8,32.552 C74.6719994,32.552 74.5200009,32.5839997 74.344,32.648 C74.1680053,32.7119981 74.0160114,32.7759952 73.8880135,32.8399932 L73.8888197,32.8391698 Z M77.296,34.616 C77.296,34.1039974 77.1520014,33.8000005 76.864,33.704 C76.7039992,33.8000005 76.5520007,33.9359991 76.408,34.112 C76.2639993,34.2880009 76.192,34.4559992 76.192,34.616 L77.296,34.616 Z M101.008,31.784 L101.872,34.76 C101.743999,35.1120018 101.608001,35.3519994 101.464,35.48 C101.319999,35.6080006 101.072002,35.672 100.72,35.672 C100.624,35.672 100.216004,35.6160006 99.496,35.504 C98.7759964,35.3919994 98.1920022,35.336 97.744,35.336 L96.496,35.528 L95.392,35.672 C95.0719984,35.6399998 94.6720024,35.5920003 94.192,35.528 C93.7119976,35.4639997 93.3280014,35.4000003 93.04,35.336 L93.568,35 L93.328,35 C92.7519971,35 92.4480002,35.1119989 92.416,35.336 L88.576,35.336 C88.4799995,35.1119989 87.5040093,35 85.648,35 C85.455999,35 85.056003,34.9840002 84.448,34.952 C83.839997,34.9199998 83.536,34.8560005 83.536,34.76 L83.536,34.376 L83.296,34.376 C83.0719989,34.376 82.96,34.2320014 82.96,33.944 C82.96,33.5279979 83.1439982,33.0480027 83.512,32.504 C83.8800018,31.9599973 84.3999966,31.3040038 85.072,30.536 C85.9680045,29.543995 86.5439987,28.7760027 86.8,28.232 C87.7600048,26.3439906 89.039992,24.0880131 90.64,21.464 C90.7040003,21.3679995 91.0079973,20.9520037 91.552,20.216 C92.0640026,19.5759968 92.4399988,19.0080025 92.68,18.512 C92.9200012,18.0159975 93.04,17.4000037 93.04,16.664 C91.7919938,16.3759986 90.5200065,16.1920004 89.224,16.112 C87.9279935,16.0319996 86.4000088,15.992 84.64,15.992 L82.528,15.992 L82.528,14.936 C82.528,14.0399955 82.5759995,13.3200027 82.672,12.776 C82.7680005,12.2319973 82.9919982,11.96 83.344,11.96 C84.0160034,11.96 84.9919936,12.055999 86.272,12.248 C87.5520064,12.440001 88.5119968,12.536 89.152,12.536 L91.984,12.392 C93.2320062,12.2959995 94.159997,12.248 94.768,12.248 C95.4080032,12.248 96.3999933,12.343999 97.744,12.536 C99.0240064,12.728001 99.9519971,12.824 100.528,12.824 C100.624,12.824 100.751999,12.7840004 100.912,12.704 C101.072001,12.6239996 101.2,12.5680002 101.296,12.536 C101.36,12.6320005 101.44,12.8399984 101.536,13.16 C101.632,13.4800016 101.743999,13.6719997 101.872,13.736 C101.776,14.4400035 101.512002,15.095997 101.08,15.704 C100.647998,16.312003 99.632008,17.5279909 98.032,19.352 C97.6799982,19.7680021 97.3840012,20.1839979 97.144,20.6 C96.9039988,21.0160021 96.6400014,21.5439968 96.352,22.184 C95.9999982,22.984004 95.6800014,23.6079978 95.392,24.056 C95.2959995,24.2160008 94.6240062,25.2079909 93.376,27.032 C91.9999931,29.0160099 91.0880022,30.3919962 90.64,31.16 L90.592,31.352 L90.64,31.496 L91.792,31.784 L98.944,31.784 C99.0080003,31.8480003 99.0959994,31.9119997 99.208,31.976 C99.3200006,32.0400003 99.4239995,32.072 99.52,32.072 C99.712001,32.0399998 99.9679984,31.9520007 100.288,31.808 C100.608002,31.6639993 100.847999,31.5600003 101.008,31.496 L101.008,31.784 Z M83.824,14.936 C84.3040024,14.936 84.7759977,14.8480009 85.24,14.672 C85.7040023,14.4959991 85.936,14.1840022 85.936,13.736 C85.9039998,13.4479986 85.6480024,13.304 85.168,13.304 C84.9439989,13.304 84.7200011,13.3199998 84.496,13.352 C84.2719989,13.3840002 84.0480011,13.4 83.824,13.4 L83.824,14.936 Z M89.152,14.552 C90.2720056,14.552 91.031998,14.5759998 91.432,14.624 C91.832002,14.6720002 92.3679966,14.7759992 93.04,14.936 C93.4240019,14.936 93.911997,14.8000014 94.504,14.528 C95.096003,14.2559986 95.392,14.0880003 95.392,14.024 L95.056,13.736 L87.664,13.736 C87.3759986,13.736 87.1040013,13.8159992 86.848,13.976 C86.5919987,14.1360008 86.464,14.3439987 86.464,14.6 L89.152,14.552 Z M96.736,14.024 C96.543999,14.024 96.3600009,14.119999 96.184,14.312 C96.0079991,14.504001 95.92,14.6639994 95.92,14.792 L95.968,14.936 L96.832,14.024 L96.736,14.024 Z M99.232,14.024 C98.7839978,14.4080019 98.2720029,14.9679963 97.696,15.704 C97.1199971,16.4400037 96.736001,16.9679984 96.544,17.288 C97.1840032,17.288 97.7759973,17.0160027 98.32,16.472 C98.8640027,15.9279973 99.4719966,15.2080045 100.144,14.312 C100.048,14.1519992 99.904001,14.072 99.712,14.072 C99.519999,14.072 99.3600006,14.0560002 99.232,14.024 Z M94.768,17.576 C94.575999,17.7040006 94.48,17.8959987 94.48,18.152 L94.768,18.152 L94.768,17.576 Z M94.192,20.216 C93.8719984,20.216 93.5360018,20.2719994 93.184,20.384 C92.8319982,20.4960006 92.656,20.6799987 92.656,20.936 L92.704,21.128 L94.528,20.216 L94.192,20.216 Z M95.056,21.128 C94.7679986,21.128 94.5040012,21.2079992 94.264,21.368 C94.0239988,21.5280008 93.904,21.7519986 93.904,22.04 L94.768,22.328 L95.056,21.128 Z M91.504,22.904 C91.2799989,23.0320006 91.168,23.2399986 91.168,23.528 C91.5200018,23.528 91.7279997,23.4160011 91.792,23.192 L91.504,22.904 Z M93.76,23.768 C93.5999992,23.768 93.0560046,23.9759979 92.128,24.392 C92.1600002,24.6160011 92.3839979,24.728 92.8,24.728 C93.1200016,24.728 93.3519993,24.6560007 93.496,24.512 C93.6400007,24.3679993 93.7759994,24.1200018 93.904,23.768 L93.76,23.768 Z M90.496,25.496 C90.0799979,25.496 89.7440013,25.5599994 89.488,25.688 C89.2319987,25.8160006 89.104,26.0719981 89.104,26.456 L89.152,26.744 C89.3760011,26.6479995 89.7759971,26.4560014 90.352,26.168 C90.9280029,25.8799986 91.216,25.6880005 91.216,25.592 L90.496,25.496 Z M90.64,27.656 C90.8640011,27.656 91.071999,27.5840007 91.264,27.44 C91.456001,27.2959993 91.552,27.1120011 91.552,26.888 L91.504,26.744 C90.9279971,27.0960018 90.544001,27.3839989 90.352,27.608 L90.64,27.656 Z M87.088,30.008 C87.5040021,30.008 87.9999971,29.8880012 88.576,29.648 C89.1520029,29.4079988 89.535999,29.1280016 89.728,28.808 C89.6319995,28.7439997 89.4160017,28.6800003 89.08,28.616 C88.7439983,28.5519997 88.4640011,28.52 88.24,28.52 C88.1119994,28.52 87.9120014,28.719998 87.64,29.12 C87.3679986,29.520002 87.1840005,29.815999 87.088,30.008 Z M87.088,30.584 C86.7999986,30.6160002 86.5760008,30.7439989 86.416,30.968 C86.2559992,31.1920011 86.176,31.4639984 86.176,31.784 L87.952,31.496 C87.7279989,31.4639998 87.5360008,31.3600009 87.376,31.184 C87.2159992,31.0079991 87.1200002,30.8080011 87.088,30.584 Z M87.088,33.56 C87.3120011,33.56 87.5839984,33.4000016 87.904,33.08 C88.2240016,32.7599984 88.384,32.5200008 88.384,32.36 L87.52,32.36 C87.52,33.0640035 87.3760014,33.4639995 87.088,33.56 Z M94.528,34.136 C94.9440021,34.0719997 95.3119984,34.0320001 95.632,34.016 C95.9520016,33.9999999 96.207999,33.992 96.4,33.992 C96.5280006,33.992 97.0159958,33.9600003 97.864,33.896 C98.7120042,33.8319997 99.4879965,33.6720013 100.192,33.416 C100.192,33.0959984 99.7120048,32.936 98.752,32.936 C98.1119968,32.936 97.1840061,32.9999994 95.968,33.128 C94.8159942,33.2560006 93.9200032,33.32 93.28,33.32 C92.8959981,33.32 92.608001,33.3040002 92.416,33.272 C91.9679978,33.4000006 91.6640008,33.6079986 91.504,33.896 L94.192,33.896 L94.528,34.136 Z M89.968,33.896 C90.2240013,33.896 90.5039985,33.8320006 90.808,33.704 C91.1120015,33.5759994 91.264,33.4800003 91.264,33.416 C91.264,33.3519997 91.2240004,33.2720005 91.144,33.176 C91.0639996,33.0799995 90.9920003,33.0160002 90.928,32.984 C90.7039989,32.984 90.488001,33.079999 90.28,33.272 C90.071999,33.464001 89.968,33.6719989 89.968,33.896 Z M86.795763,33.3380497 C86.7851424,33.3580166 86.7545549,33.368 86.704,33.368 C86.5759994,33.368 86.3440017,33.3200005 86.008,33.224 C85.6719983,33.1279995 85.4400006,33.0480003 85.312,32.984 L85.312,33.704 C85.6320016,33.704 85.9519984,33.6640004 86.272,33.584 C86.5739351,33.5085162 86.747668,33.4259114 86.7932031,33.3361834 L86.795763,33.3380497 Z M89.488,33.272 C88.8479968,33.272 88.3360019,33.367999 87.952,33.56 L89.488,33.56 L89.488,33.272 Z M99.376,34.856 C99.6000011,34.856 99.7439997,34.8240003 99.808,34.76 C99.808,34.6639995 99.6480016,34.616 99.328,34.616 C99.0399986,34.616 98.896,34.6479997 98.896,34.712 C98.896,34.8080005 99.0559984,34.856 99.376,34.856 Z M106.144,24.488 C106.144,22.887992 106.431997,21.1280096 107.008,19.208 C107.584003,17.2879904 108.287996,15.6400069 109.12,14.264 L109.216,14.312 C109.408001,14.312 109.807997,14.1040021 110.416,13.688 C110.992003,13.3039981 111.359999,13.112 111.52,13.112 C111.744001,13.0479997 112.327995,12.9040011 113.272,12.68 C114.216005,12.4559989 115.103996,12.344 115.936,12.344 L115.936,12.776 C116.384002,12.6159992 116.791998,12.5200002 117.16,12.488 C117.528002,12.4559998 117.903998,12.44 118.288,12.44 C119.280005,12.44 120.247995,12.535999 121.192,12.728 C122.136005,12.920001 122.608,13.2559976 122.608,13.736 C123.408004,13.736 124.039998,14.0159972 124.504,14.576 C124.968002,15.1360028 125.423998,15.8959952 125.872,16.856 C126.032001,17.2080018 126.199999,17.5279986 126.376,17.816 C126.552001,18.1040014 126.719999,18.2959995 126.88,18.392 L126.88,22.52 L126.016,23.144 L126.256,23.432 C125.391996,24.1040034 123.504015,24.44 120.592,24.44 L118.096,24.44 C116.495992,24.44 115.448002,24.4240002 114.952,24.392 C114.455998,24.3599998 113.488007,24.2320011 112.048,24.008 C112.016,23.815999 111.920001,23.72 111.76,23.72 C111.696,23.72 111.616,23.7359998 111.52,23.768 C111.424,23.8000002 111.328,23.816 111.232,23.816 C111.232,24.7440046 111.351999,25.7679944 111.592,26.888 C111.832001,28.0080056 112.191998,28.8239974 112.672,29.336 C112.928001,29.6240014 113.631994,29.9759979 114.784,30.392 C115.360003,30.584001 115.743999,30.7279995 115.936,30.824 C116.512003,31.2400021 117.007998,31.448 117.424,31.448 C118.160004,31.448 118.959996,31.352001 119.824,31.16 C120.688004,30.967999 121.183999,30.8560002 121.312,30.824 C122.848008,30.4079979 124.079995,30.2 125.008,30.2 C125.424002,30.2 125.703999,30.3839982 125.848,30.752 C125.992001,31.1200018 126.064,31.5919971 126.064,32.168 C126.064,32.776003 126.016,33.1599992 125.92,33.32 C125.824,33.4800008 125.648001,33.5839998 125.392,33.632 C125.135999,33.6800002 124.928001,33.8159989 124.768,34.04 C124.575999,34.1040003 122.704018,34.4239971 119.152,35 C117.807993,35 116.616005,34.9680003 115.576,34.904 C114.535995,34.8399997 113.568004,34.6640014 112.672,34.376 C111.679995,34.0559984 110.680005,33.3040059 109.672,32.12 C108.663995,30.9359941 107.824003,29.6240072 107.152,28.184 C106.479997,26.7439928 106.144,25.5120051 106.144,24.488 Z M124.191579,15.1405711 C124.185504,15.2303093 124.113645,15.2981183 123.976,15.344 C123.831999,15.3920002 123.712,15.416 123.616,15.416 C123.359999,15.3839998 123.064002,15.2560011 122.728,15.032 C122.391998,14.8079989 122.224,14.5520014 122.224,14.264 C121.295995,14.264 120.832,14.0400022 120.832,13.592 C120.768,13.592 120.640001,13.7039989 120.448,13.928 C120.255999,14.1520011 119.904003,14.264 119.392,14.264 C119.231999,14.264 119.072001,14.2000006 118.912,14.072 C118.751999,13.9439994 118.544001,13.88 118.288,13.88 L117.664,13.928 C117.728,13.9600002 117.879999,14.1679981 118.12,14.552 C118.360001,14.9360019 118.559999,15.1439998 118.72,15.176 C118.784,15.176 118.903999,15.1200006 119.08,15.008 C119.256001,14.8959994 119.407999,14.84 119.536,14.84 C119.664001,14.8720002 119.903998,14.9599993 120.256,15.104 C120.608002,15.2480007 120.959998,15.32 121.312,15.32 C121.312,15.5760013 121.599997,15.9599974 122.176,16.472 C122.752003,16.9840026 123.135999,17.24 123.328,17.24 C123.520001,17.24 123.775998,17.1760006 124.096,17.048 C124.416002,16.9199994 124.576,16.7760008 124.576,16.616 C124.576,16.423999 124.512001,16.1440018 124.384,15.776 C124.258824,15.4161193 124.194856,15.2016078 124.192094,15.1324592 L124.191579,15.1405711 Z M108.4,25.256 C108.688001,25.256 108.983998,25.1840007 109.288,25.04 C109.592002,24.8959993 109.744,24.6960013 109.744,24.44 C109.744,24.3759997 109.696,24.2720007 109.6,24.128 C109.504,23.9839993 109.456,23.8480006 109.456,23.72 C109.52,23.4959989 109.631999,23.2160017 109.792,22.88 C109.952001,22.5439983 110.032,22.2000018 110.032,21.848 C110.032,21.5919987 109.976001,21.4080006 109.864,21.296 C109.751999,21.1839994 109.592001,21.0800005 109.384,20.984 C109.175999,20.8879995 109.072,20.7760006 109.072,20.648 C109.072,20.5199994 109.175999,20.2240023 109.384,19.76 C109.592001,19.2959977 109.696,18.9840008 109.696,18.824 C109.696,18.5039984 109.999997,17.9760037 110.608,17.24 C110.960002,16.7599976 111.231999,16.3760014 111.424,16.088 C111.616001,15.7999986 111.712,15.5120014 111.712,15.224 C111.840001,15.224 112.015999,15.2559997 112.24,15.32 C112.464001,15.3840003 112.687999,15.416 112.912,15.416 C113.008,15.416 113.072,15.3280009 113.104,15.152 C113.136,14.9759991 113.184,14.8720002 113.248,14.84 C113.504001,14.7439995 114.015996,14.696 114.784,14.696 C115.520004,14.6639998 116.079998,14.6240002 116.464,14.576 C116.848002,14.5279998 117.056,14.4240008 117.088,14.264 C116.735998,14.1039992 116.400002,14.0000002 116.08,13.952 C115.759998,13.9039998 115.344003,13.88 114.832,13.88 C112.655989,13.88 111.000006,14.6159926 109.864,16.088 C108.727994,17.5600074 108.16,19.4159888 108.16,21.656 L109.696,21.656 L109.696,21.944 L107.92,23.72 L107.92,24.632 L108.496,24.296 L107.92,25.208 L108.4,25.256 Z M111.184,19.64 C111.344001,19.9600016 112.279991,20.1759994 113.992,20.288 C115.704009,20.4000006 117.135994,20.456 118.288,20.456 C118.864003,20.456 119.631995,20.3920006 120.592,20.264 C121.488004,20.1359994 122.223997,20.072 122.8,20.072 C122.8,19.9119992 122.688001,19.5840025 122.464,19.088 C122.239999,18.5919975 122.064001,18.344 121.936,18.344 L121.84,18.392 C121.615999,17.7199966 120.904006,17.1600022 119.704,16.712 C118.503994,16.2639978 117.488004,16.04 116.656,16.04 C115.375994,16.04 114.256005,16.343997 113.296,16.952 C112.335995,17.560003 111.632002,18.4559941 111.184,19.64 Z M124.576,20.648 C124.576,21.1280024 124.416002,21.4399993 124.096,21.584 C123.775998,21.7280007 123.312003,21.8 122.704,21.8 C122.191997,21.8320002 121.808001,21.8959995 121.552,21.992 C121.295999,22.0880005 121.168,22.2959984 121.168,22.616 C122.224005,22.616 123.055997,22.5840003 123.664,22.52 C124.272003,22.4559997 124.639999,22.2640016 124.768,21.944 C124.928001,22.2000013 125.151999,22.328 125.44,22.328 C125.44,22.0719987 125.384001,21.7920015 125.272,21.488 C125.159999,21.1839985 125.104,20.9520008 125.104,20.792 C125.104,20.6639994 125.175999,20.5520005 125.32,20.456 C125.464001,20.3599995 125.576,20.2480006 125.656,20.12 C125.736,19.9919994 125.776,19.7360019 125.776,19.352 C125.776,18.1039938 125.408004,17.48 124.672,17.48 C124.351998,17.48 124.152,17.5679991 124.072,17.744 C123.992,17.9200009 123.952,18.2479976 123.952,18.728 C124.304002,19.7840053 124.512,20.3599995 124.576,20.456 L124.576,20.648 Z M111.568,21.224 C111.279999,21.224 111.032001,21.3359989 110.824,21.56 C110.615999,21.7840011 110.512,22.0399986 110.512,22.328 C110.928002,22.328 111.207999,22.2480008 111.352,22.088 C111.496001,21.9279992 111.568,21.6400021 111.568,21.224 Z M112.48,21.656 C112.416,21.656 112.232002,21.7999986 111.928,22.088 C111.623998,22.3760014 111.376001,22.6319989 111.184,22.856 L112.192,22.664 C112.256,22.664 112.471998,22.6240004 112.84,22.544 C113.208002,22.4639996 113.647997,22.2640016 114.16,21.944 C114.064,21.9119998 113.568004,21.8160008 112.672,21.656 L112.48,21.656 Z M114.16,22.52 C114.800003,22.7440011 115.359998,22.856 115.84,22.856 C116.128001,22.856 116.375999,22.760001 116.584,22.568 C116.792001,22.375999 116.896,22.1360014 116.896,21.848 C115.295992,21.848 114.384001,22.0719978 114.16,22.52 Z M118.72,22.232 C118.271998,22.232 117.832002,22.2879994 117.4,22.4 C116.967998,22.5120006 116.752,22.7119986 116.752,23 L116.8,23.144 C116.864,23.144 117.431995,23.1040004 118.504,23.024 C119.576005,22.9439996 120.191999,22.6800022 120.352,22.232 L118.72,22.232 Z M109.504,25.688 C108.895997,25.688 108.512001,25.7759991 108.352,25.952 C108.191999,26.1280009 108.112,26.5359968 108.112,27.176 C108.496002,27.176 108.823999,27.0240015 109.096,26.72 C109.368001,26.4159985 109.504,26.0720019 109.504,25.688 Z M109.696,26.36 C109.632,26.4560005 109.464001,26.703998 109.192,27.104 C108.919999,27.504002 108.784,27.8959981 108.784,28.28 C109.712005,28.28 110.319999,28.1520013 110.608,27.896 C110.512,27.6719989 110.352001,27.4080015 110.128,27.104 C109.903999,26.7999985 109.76,26.552001 109.696,26.36 Z M109.12,29.048 C109.280001,29.1440005 109.408,29.3279986 109.504,29.6 C109.6,29.8720014 109.664,30.0879992 109.696,30.248 C110.432004,29.8639981 110.8,29.2560042 110.8,28.424 C109.903996,28.424 109.344001,28.6319979 109.12,29.048 Z M111.52,31.736 C111.904002,31.1599971 112.096,30.7920008 112.096,30.632 L112.048,30.488 L110.32,30.248 L109.984,30.488 L111.52,31.736 Z M112.048,32.024 C112.08,32.0880003 112.128,32.1439998 112.192,32.192 C112.256,32.2400002 112.32,32.2799998 112.384,32.312 C112.672001,32.2479997 112.991998,32.1040011 113.344,31.88 C113.696002,31.6559989 113.872,31.4960005 113.872,31.4 C113.872,31.2399992 113.816001,31.1040006 113.704,30.992 C113.591999,30.8799994 113.504,30.824 113.44,30.824 C113.151999,30.824 112.848002,30.9599986 112.528,31.232 C112.207998,31.5040014 112.048,31.7679987 112.048,32.024 Z M116.512,33.224 C116.672001,33.3840008 116.768,33.464 116.8,33.464 C117.344003,33.464 117.983996,33.4000006 118.72,33.272 C119.456004,33.1439994 119.919999,33.0640002 120.112,33.032 C121.456007,32.7759987 122.335998,32.648 122.752,32.648 L123.328,32.888 C123.712002,32.888 124.063998,32.8080008 124.384,32.648 C124.704002,32.4879992 124.864,32.2320018 124.864,31.88 C124.223997,31.88 123.360005,32.0079987 122.272,32.264 C122.111999,32.2960002 121.840002,32.3599995 121.456,32.456 C121.071998,32.5520005 120.704002,32.6159998 120.352,32.648 C119.711997,32.648 119.032004,32.6719998 118.312,32.72 C117.591996,32.7680002 117.088001,32.8239997 116.8,32.888 L116.512,33.224 Z M135.904,12.392 C136.288002,12.392 136.48,12.5199987 136.48,12.776 C136.48,12.8720005 136.408001,13.1599976 136.264,13.64 C136.119999,14.1200024 136.032,14.455999 136,14.648 L137.104,13.544 C138.352006,12.743996 139.519995,12.0880026 140.608,11.576 C141.696005,11.0639974 142.767995,10.808 143.824,10.808 C143.92,10.9360006 143.968,11.3199968 143.968,11.96 C143.968,12.2800016 143.936,12.7919965 143.872,13.496 C143.808,14.2640038 143.776,14.8719978 143.776,15.32 C143.776,15.512001 143.808,15.7679984 143.872,16.088 C143.872,16.1520003 143.744001,16.2239996 143.488,16.304 C143.231999,16.3840004 143.040001,16.4399998 142.912,16.472 C141.375992,16.9200022 140.064005,17.447997 138.976,18.056 C137.887995,18.664003 137.264001,19.5279944 137.104,20.648 L136.912,21.704 C136.591998,23.4640088 136.432,24.5519979 136.432,24.968 C136.432,25.960005 136.543999,27.159993 136.768,28.568 C136.8,28.7920011 136.864,29.3119959 136.96,30.128 C137.056,30.9440041 137.104,31.7039965 137.104,32.408 C137.104,32.600001 137.072,32.9039979 137.008,33.32 C136.944,33.7360021 136.88,34.1359981 136.816,34.52 L137.104,34.856 C137.072,35.048001 136.656004,35.1999994 135.856,35.312 C135.055996,35.4240006 134.480002,35.48 134.128,35.48 L133.984,35.48 C133.855999,35.48 133.76,35.4560002 133.696,35.408 C133.632,35.3599998 133.584,35.2720006 133.552,35.144 C133.456,35.3680011 133.272001,35.5279995 133,35.624 C132.727999,35.7200005 132.464001,35.768 132.208,35.768 C132.047999,35.7359998 131.864001,35.6960002 131.656,35.648 C131.447999,35.5999998 131.296,35.5440003 131.2,35.48 L130.864,32.456 L130.864,12.392 L135.904,12.392 Z M140.608,13.688 C141.120003,13.688 141.376,14.0399965 141.376,14.744 C141.376,14.9680011 141.36,15.1679991 141.328,15.344 C141.296,15.5200009 141.28,15.6879992 141.28,15.848 C141.728002,15.6879992 142.087999,15.4160019 142.36,15.032 C142.632001,14.6479981 142.768,14.2000026 142.768,13.688 C142.768,13.4319987 142.544002,13.1360017 142.096,12.8 C141.647998,12.4639983 141.424,12.2320006 141.424,12.104 C141.424,12.0719998 141.456,12.0240003 141.52,11.96 C141.103998,12.3760021 140.896,12.5999998 140.896,12.632 L140.944,12.872 C140.719999,13.0960011 140.384002,13.303999 139.936,13.496 C139.487998,13.688001 139.152001,13.8959989 138.928,14.12 C138.703999,14.3440011 138.592,14.7119974 138.592,15.224 C138.784001,15.1919998 138.967999,15.0880009 139.144,14.912 C139.320001,14.7359991 139.471999,14.5680008 139.6,14.408 C139.952002,13.9279976 140.287998,13.688 140.608,13.688 Z M134.608,14.888 C134.608,15.688004 134.048006,16.7279936 132.928,18.008 C133.376002,17.8479992 133.839998,17.6320014 134.32,17.36 C134.800002,17.0879986 135.04,16.8880006 135.04,16.76 L135.04,13.832 C134.751999,13.7679997 134.304003,13.7040003 133.696,13.64 C133.087997,13.5759997 132.640001,13.5280002 132.352,13.496 L132.352,14.456 L132.544,14.456 C132.544,14.6800011 132.504,14.9039989 132.424,15.128 C132.344,15.3520011 132.304,15.559999 132.304,15.752 C132.848003,15.752 133.359998,15.5120024 133.84,15.032 L132.352,16.52 L132.352,17.144 C132.416,17.0799997 132.775997,16.6880036 133.432,15.968 C134.088003,15.2479964 134.479999,14.888 134.608,14.888 Z M132.928,23.624 C133.312002,23.5919998 133.775997,23.472001 134.32,23.264 C134.864003,23.055999 135.199999,22.8880006 135.328,22.76 C135.456001,22.151997 135.536,21.752001 135.568,21.56 C135.952002,19.8959917 136.271999,18.6320043 136.528,17.768 C136.784001,16.9039957 137.183997,15.9920048 137.728,15.032 C136.863996,15.7360035 135.976005,16.6159947 135.064,17.672 C134.151995,18.7280053 133.440003,19.7199954 132.928,20.648 L133.12,20.648 L135.328,20.072 L135.328,20.312 L132.928,23.288 L132.928,23.624 Z M138.448,16.904 C138.800002,16.904 139.087999,16.800001 139.312,16.592 C139.536001,16.383999 139.648,16.1200016 139.648,15.8 L139.6,15.368 L138.16,16.856 L138.448,16.904 Z M133.552,18.584 C133.039997,18.584 132.704001,18.679999 132.544,18.872 C132.383999,19.064001 132.304,19.3679979 132.304,19.784 L132.352,20.312 L133.552,18.584 Z M133.264,21.512 C132.527996,21.512 132.16,21.9279958 132.16,22.76 L132.64,22.76 L133.552,21.512 L133.264,21.512 Z M134.272,23.912 C133.791998,23.9760003 133.352002,24.0719994 132.952,24.2 C132.551998,24.3280006 132.352,24.4239997 132.352,24.488 L132.352,26.312 L134.416,23.912 L134.272,23.912 Z M132.64,27.176 C132.768001,27.3360008 132.927999,27.416 133.12,27.416 C133.664003,27.416 134.167998,27.2400018 134.632,26.888 C135.096002,26.5359982 135.328,26.1040026 135.328,25.592 L135.328,25.256 C135.328,24.7759976 135.232001,24.4240011 135.04,24.2 C134.911999,24.392001 134.568003,24.8079968 134.008,25.448 C133.447997,26.0880032 132.992002,26.6639974 132.64,27.176 Z M132.064,29.24 C132.064,29.2720002 132.159999,29.5759971 132.352,30.152 C132.512001,29.9919992 132.783998,29.7280018 133.168,29.36 C133.552002,28.9919982 133.855999,28.6720014 134.08,28.4 C134.304001,28.1279986 134.416,27.9120008 134.416,27.752 L134.176,27.704 C133.599997,27.704 133.104002,27.8239988 132.688,28.064 C132.271998,28.3040012 132.064,28.6959973 132.064,29.24 Z M135.328,27.752 C135.296,27.8160003 134.976003,28.2319962 134.368,29 C133.919998,29.4800024 133.552001,29.9599976 133.264,30.44 C134.192005,30.44 134.815998,30.336001 135.136,30.128 C135.456002,29.919999 135.616,29.416004 135.616,28.616 C135.616,28.2319981 135.520001,27.944001 135.328,27.752 Z M132.352,31.928 C132.352,32.0880008 132.384,32.2879988 132.448,32.528 C132.512,32.7680012 132.576,32.9679992 132.64,33.128 C133.088002,32.9039989 133.503998,32.5680022 133.888,32.12 C134.272002,31.6719978 134.543999,31.2080024 134.704,30.728 C134.543999,30.8240005 134.384001,30.8959998 134.224,30.944 C134.063999,30.9920002 133.920001,31.0479997 133.792,31.112 C132.831995,31.4960019 132.352,31.7679992 132.352,31.928 Z M135.616,30.968 C134.879996,31.6720035 134.288002,32.3919963 133.84,33.128 L134.176,33.128 C134.336001,33.128 134.663998,33.032001 135.16,32.84 C135.656002,32.647999 135.904,32.5200003 135.904,32.456 L135.616,30.968 Z M135.904,33.32 C135.455998,33.32 134.984002,33.3999992 134.488,33.56 C133.991998,33.7200008 133.680001,33.9599984 133.552,34.28 L134.176,34.28 C135.328006,34.28 135.904,34.0880019 135.904,33.704 L135.904,33.32 Z" id="Seltzer-Copy-9" fill="#000000"></path>
    </g>
</svg>