<?xml version="1.0" encoding="UTF-8"?>
<svg width="178px" height="39px" viewBox="0 0 178 39" version="1.1" xmlns="http://www.w3.org/2000/svg" xmlns:xlink="http://www.w3.org/1999/xlink">
    <!-- Generator: Sketch 52.5 (67469) - http://www.bohemiancoding.com/sketch -->
    <title>Seltzer Copy 8</title>
    <desc>Created with Sketch.</desc>
    <g id="Page-1" stroke="none" stroke-width="1" fill="none" fill-rule="evenodd">
        <path d="M6.3125,37.0859375 C5.06249375,38.3359438 3.87500563,38.9609375 2.75,38.9609375 C2.03124641,38.9609375 1.54687625,38.6953152 1.296875,38.1640625 C1.6562518,37.7265603 1.8359375,37.0703169 1.8359375,36.1953125 L1.8359375,35.84375 C1.8359375,35.7499995 1.82812508,35.6640629 1.8125,35.5859375 C1.03124609,34.882809 0.640625,34.0507861 0.640625,33.0898438 C0.640625,32.1289014 1.09374547,31.1484425 2,30.1484375 C1.73437367,29.6171848 1.6015625,29.0507843 1.6015625,28.4492188 C1.6015625,27.8476532 1.69140535,27.2851589 1.87109375,26.7617188 C2.05078215,26.2382786 2.29687344,25.781252 2.609375,25.390625 C3.26562828,24.5312457 3.91015309,24.1015625 4.54296875,24.1015625 C5.17578441,24.1015625 5.62499867,24.35156 5.890625,24.8515625 C5.32812219,25.4453155 5.046875,26.3749937 5.046875,27.640625 C5.046875,28.9062563 5.23046691,30.0078078 5.59765625,30.9453125 C5.96484559,31.8828172 6.48437164,32.6874966 7.15625,33.359375 C8.59375719,34.8281323 10.4296763,35.5625 12.6640625,35.5625 C14.16407,35.5625 15.4374948,35.1328168 16.484375,34.2734375 C17.6093806,33.3515579 18.171875,32.093758 18.171875,30.5 C18.171875,29.3749944 17.9062527,28.460941 17.375,27.7578125 C16.5468709,26.664057 15.2500088,25.5078186 13.484375,24.2890625 C12.1249932,23.3359327 11.0390666,22.859375 10.2265625,22.859375 C9.39843336,22.859375 8.48438,23.1953091 7.484375,23.8671875 C7.75000133,23.0703085 7.8828125,22.3281284 7.8828125,21.640625 C7.8828125,21.4843742 7.73437648,21.2812512 7.4375,21.03125 L6.5703125,20.2578125 C3.83592383,17.7421749 2.2187525,15.4062608 1.71875,13.25 C1.54687414,12.4999962 1.4609375,11.5585994 1.4609375,10.4257812 C1.4609375,9.29296309 1.73827848,8.14453707 2.29296875,6.98046875 C2.84765902,5.81640043 3.60937016,4.82812906 4.578125,4.015625 C6.59376008,2.29686641 9.15623445,1.4375 12.265625,1.4375 C14.1562595,1.4375 15.8906171,1.74218445 17.46875,2.3515625 C18.1406284,2.61718883 18.9062457,2.75 19.765625,2.75 C20.1250018,2.75 20.4492173,2.73046895 20.7382812,2.69140625 C21.0273452,2.65234355 21.2812489,2.49218891 21.5,2.2109375 C21.703126,1.91406102 21.8046875,1.64843867 21.8046875,1.4140625 C21.8046875,1.17968633 21.7734378,0.984375781 21.7109375,0.828125 C21.820313,0.781249766 21.9726553,0.7578125 22.1679688,0.7578125 C22.3632822,0.7578125 22.5781238,0.824218086 22.8125,0.95703125 C23.0468762,1.08984441 23.2578116,1.27343633 23.4453125,1.5078125 C23.8671896,2.03906516 24.078125,2.63671543 24.078125,3.30078125 C24.078125,3.96484707 23.8906269,4.46874828 23.515625,4.8125 C24.0468777,5.28125234 24.3125,6.00780758 24.3125,6.9921875 C24.3125,7.96094234 23.9843783,8.77343422 23.328125,9.4296875 C23.4531256,9.85156461 23.515625,10.2304671 23.515625,10.5664062 C23.515625,10.9023454 23.4570318,11.2226547 23.3398438,11.5273438 C23.2226557,11.8320328 23.062501,12.0937489 22.859375,12.3125 C22.4062477,12.7968774 21.9765645,13.0390625 21.5703125,13.0390625 C20.9296843,13.0390625 20.3906272,12.9296886 19.953125,12.7109375 C20.2187513,12.0859344 20.3515625,11.4140661 20.3515625,10.6953125 C20.3515625,9.97655891 20.1914079,9.23828504 19.8710938,8.48046875 C19.5507796,7.72265246 19.1015654,7.06250281 18.5234375,6.5 C17.3046814,5.34374422 15.7109473,4.765625 13.7421875,4.765625 C12.4921812,4.765625 11.468754,5.14843367 10.671875,5.9140625 C9.92187125,6.63281609 9.546875,7.49999492 9.546875,8.515625 C9.546875,9.28125383 9.73437313,9.92187242 10.109375,10.4375 C10.7656283,11.3281295 11.8046804,12.2499952 13.2265625,13.203125 L14.3515625,13.953125 C14.9765656,14.343752 15.3984364,14.5390625 15.6171875,14.5390625 C15.8359386,14.5390625 16.0546864,14.5156252 16.2734375,14.46875 C16.4921886,14.4218748 16.7343737,14.3593754 17,14.28125 C17.5625028,14.0937491 18.1093723,13.8281267 18.640625,13.484375 L18.3359375,14.796875 C18.242187,15.2343772 18.1953125,15.5546865 18.1953125,15.7578125 C18.1953125,16.0859391 18.3593734,16.3828112 18.6875,16.6484375 C21.6093896,19.1797002 23.5624951,21.2968665 24.546875,23 C25.4062543,24.4843824 25.8359375,26.0859289 25.8359375,27.8046875 C25.8359375,29.5234461 25.5546903,30.9999938 24.9921875,32.234375 C24.4296847,33.4687562 23.6093804,34.5624952 22.53125,35.515625 C20.1562381,37.6406356 17.0703315,38.703125 13.2734375,38.703125 C10.6015491,38.703125 8.28125984,38.1640679 6.3125,37.0859375 Z M4.71875,8.703125 C4.12499703,8.95312625 3.828125,9.60155727 3.828125,10.6484375 C3.828125,12.7890732 5.2577982,15.1406122 8.1171875,17.703125 L9.5234375,18.96875 C10.0078149,19.4062522 10.2226565,19.7421863 10.1679688,19.9765625 C10.113281,20.2109387 10.0664064,20.3984368 10.0273438,20.5390625 C9.98828105,20.6796882 9.94531273,20.8124994 9.8984375,20.9375 C9.85156227,21.0625006 9.82031258,21.1562497 9.8046875,21.21875 C10.3515652,20.8906234 10.7968733,20.7265625 11.140625,20.7265625 C11.8281284,20.7265625 12.4765595,20.9140606 13.0859375,21.2890625 C16.1015776,23.1640719 18.1484321,24.8359302 19.2265625,26.3046875 C20.0078164,27.3828179 20.4140623,28.7265545 20.4453125,30.3359375 C20.4453125,30.9140654 20.4062504,31.3984355 20.328125,31.7890625 C21.1562541,31.2578098 21.5703125,30.4140683 21.5703125,29.2578125 C21.5703125,28.1328069 21.4179703,27.265628 21.1132812,26.65625 C20.8085922,26.046872 20.453127,25.5039086 20.046875,25.0273438 C19.640623,24.5507789 19.1132845,24.0312528 18.4648438,23.46875 C17.816403,22.9062472 17.0156298,22.2968783 16.0625,21.640625 L12.734375,19.3671875 C9.99998633,17.5703035 7.92188211,15.671885 6.5,13.671875 C5.24999375,11.9062412 4.65624969,10.2500077 4.71875,8.703125 Z M50.09375,30.921875 C50.4375017,30.2656217 51.0703079,29.9375 51.9921875,29.9375 C52.6171906,29.9375 53.1015608,30.1953099 53.4453125,30.7109375 C53.7265639,31.1171895 53.8671875,31.6132783 53.8671875,32.1992188 C53.8671875,32.7851592 53.7187515,33.374997 53.421875,33.96875 C53.1249985,34.562503 52.7187526,35.1015601 52.203125,35.5859375 C51.6874974,36.0703149 51.0976596,36.4999981 50.4335938,36.875 C49.7695279,37.2500019 49.0625037,37.5624988 48.3125,37.8125 C46.7656173,38.3281276 45.1562584,38.5859375 43.484375,38.5859375 C41.8124916,38.5859375 40.2461011,38.3085965 38.7851562,37.7539062 C37.3242114,37.199216 36.0703177,36.42188 35.0234375,35.421875 C32.9765523,33.4531152 31.7265648,30.7500172 31.2734375,27.3125 C31.164062,26.5468712 30.9843762,26.0000016 30.734375,25.671875 C30.2656227,25.0937471 29.4921929,24.5390652 28.4140625,24.0078125 C29.7734443,23.3984345 30.6406231,22.4218817 31.015625,21.078125 C31.1250005,20.7031231 31.2109372,20.3281269 31.2734375,19.953125 C31.6640645,17.2031113 33.0546755,14.8593847 35.4453125,12.921875 C37.7578241,11.0468656 40.3437357,10.109375 43.203125,10.109375 C46.1718898,10.109375 48.7421766,11.1562395 50.9140625,13.25 C53.1640737,15.4062608 54.2890625,18.0546718 54.2890625,21.1953125 C54.2890625,21.304688 54.2851563,21.414062 54.2773438,21.5234375 C54.2695312,21.632813 54.2734374,21.7343745 54.2890625,21.828125 C54.3203127,22.031251 54.4453114,22.1484373 54.6640625,22.1796875 C54.9453139,22.5390643 55.0859375,22.921873 55.0859375,23.328125 C55.0859375,24.2656297 54.5859425,24.8203116 53.5859375,24.9921875 C53.3359363,25.0390627 52.9453152,25.1015621 52.4140625,25.1796875 L39.1953125,27.2890625 L39.1953125,29.5390625 C39.1953125,31.3515716 39.742182,32.7890572 40.8359375,33.8515625 C41.8671927,34.8671926 43.1718671,35.375 44.75,35.375 C46.4218834,35.375 47.7656199,35.0312534 48.78125,34.34375 C49.7343798,33.6874967 50.2109375,32.8281303 50.2109375,31.765625 C50.2109375,31.5156238 50.1718754,31.2343766 50.09375,30.921875 Z M45.9921875,23.3515625 L45.9921875,16.7890625 C45.9921875,15.7578073 45.7890645,15.0000024 45.3828125,14.515625 C44.6640589,13.6874959 43.9531285,13.2734375 43.25,13.2734375 C42.5468715,13.2734375 41.9609398,13.3789052 41.4921875,13.5898438 C41.0234352,13.8007823 40.6171892,14.1328102 40.2734375,14.5859375 C39.5546839,15.5390673 39.1953125,17.0234274 39.1953125,19.0390625 L39.1953125,24.453125 L45.9921875,23.3515625 Z M49.4609375,22.765625 L49.4609375,22.0390625 C49.4609375,19.132798 49.2187524,17.375003 48.734375,16.765625 C48.5156239,16.4999987 48.2734388,16.3046881 48.0078125,16.1796875 L48.0078125,23 L49.4609375,22.765625 Z M35.375,31.7890625 C35.5937511,31.6171866 35.703125,31.4218761 35.703125,31.203125 C35.703125,30.8593733 35.6328132,30.4218777 35.4921875,29.890625 C34.8515593,27.4374877 34.53125,25.7304736 34.53125,24.7695312 C34.53125,23.8085889 34.5624997,23.0585964 34.625,22.5195312 C34.6875003,21.9804661 34.773437,21.4375027 34.8828125,20.890625 C35.0703134,19.8281197 35.2734364,18.8906291 35.4921875,18.078125 C35.6328132,17.5468723 35.703125,17.1875009 35.703125,17 C35.703125,16.6249981 35.5937511,16.3515634 35.375,16.1796875 C34.7187467,16.9609414 34.2187517,18.0078059 33.875,19.3203125 C33.5312483,20.6328191 33.2500011,21.7890575 33.03125,22.7890625 C32.9531246,23.2109396 32.4921917,23.6171855 31.6484375,24.0078125 C32.4921917,24.3984395 32.9531246,24.7890605 33.03125,25.1796875 C33.6093779,27.8203257 34.0859356,29.4999964 34.4609375,30.21875 C34.8359394,30.9375036 35.1406238,31.4609359 35.375,31.7890625 Z M62.65625,37.71875 C61.9374964,38.2187525 61.1210983,38.46875 60.2070312,38.46875 C59.2929642,38.46875 58.6132835,38.265627 58.1679688,37.859375 C57.722654,37.453123 57.5,37.0625019 57.5,36.6875 C57.5,36.1718724 57.6093739,35.7656265 57.828125,35.46875 C58.1718767,35.7343763 58.6093723,35.8671875 59.140625,35.8671875 C60.0468795,35.8671875 60.6953105,35.3437552 61.0859375,34.296875 L61.0859375,27.078125 C61.0859375,26.3906216 60.9453139,25.8906266 60.6640625,25.578125 C60.2109352,25.1093727 59.3984434,24.5859404 58.2265625,24.0078125 C59.320318,23.50781 60.0234359,23.1015641 60.3359375,22.7890625 C60.83594,22.2734349 61.0859375,21.6406288 61.0859375,20.890625 L61.0859375,7.6484375 C61.0859375,5.86717859 60.3593823,4.9765625 58.90625,4.9765625 C58.3749973,4.9765625 57.9375017,5.10937367 57.59375,5.375 C57.3749989,5.07812352 57.265625,4.76953285 57.265625,4.44921875 C57.265625,4.12890465 57.3476554,3.82031398 57.5117188,3.5234375 C57.6757821,3.22656102 57.9296858,2.95312625 58.2734375,2.703125 C59.0078162,2.17187234 59.9374944,1.90625 61.0625,1.90625 C62.1875056,1.90625 63.0624969,1.9765618 63.6875,2.1171875 C64.5468793,1.03905711 65.5156196,0.5 66.59375,0.5 C68.1562578,0.5 68.9375,1.34374156 68.9375,3.03125 L68.9375,20.890625 C68.9375,21.6406288 69.1015609,22.1796859 69.4296875,22.5078125 C69.9140649,23.007815 70.7031195,23.50781 71.796875,24.0078125 C70.6249941,24.5859404 69.8906265,25.023436 69.59375,25.3203125 C69.1562478,25.8046899 68.9375,26.3906216 68.9375,27.078125 L68.9375,34.296875 C69.3125019,35.3437552 69.9609329,35.8671875 70.8828125,35.8671875 C71.4140652,35.8671875 71.8515608,35.7343763 72.1953125,35.46875 C72.4140636,35.7656265 72.5234375,36.1367165 72.5234375,36.5820312 C72.5234375,37.027346 72.3007835,37.453123 71.8554688,37.859375 C71.410154,38.265627 70.742192,38.46875 69.8515625,38.46875 C68.960933,38.46875 68.1328163,38.2187525 67.3671875,37.71875 C66.7265593,38.2187525 65.9648482,38.46875 65.0820312,38.46875 C64.1992143,38.46875 63.3906287,38.2187525 62.65625,37.71875 Z M63.3359375,31.765625 C64.039066,31.3124977 64.4531244,30.3203202 64.578125,28.7890625 C64.6250002,28.1171841 64.6562499,27.3671916 64.671875,26.5390625 C64.6875001,25.7109334 64.6992187,25.1210955 64.7070312,24.7695312 C64.7148438,24.417967 64.71875,24.1562509 64.71875,23.984375 L64.71875,21.875 C64.71875,21.2968721 64.7109376,20.6406287 64.6953125,19.90625 L64.6953125,17.609375 C64.6484373,13.4687293 64.570313,11.1640648 64.4609375,10.6953125 C64.2421864,9.71093258 63.8671902,9.04687672 63.3359375,8.703125 L63.3359375,16.6015625 C63.3359375,19.8359537 63.3007816,21.6367169 63.2304688,22.0039062 C63.1601559,22.3710956 63.1015627,22.6406241 63.0546875,22.8125 C62.9140618,23.2968774 62.3828171,23.6953109 61.4609375,24.0078125 C62.3984422,24.3359391 62.9296869,24.7265602 63.0546875,25.1796875 C63.2421884,25.9296913 63.3359375,27.6171744 63.3359375,30.2421875 L63.3359375,31.765625 Z M90.4765625,34.578125 C90.773439,34.2656234 91.0078116,33.8710961 91.1796875,33.3945312 C91.3515634,32.9179664 91.4375,32.4179714 91.4375,31.8945312 C91.4375,31.3710911 91.4062503,30.8906272 91.34375,30.453125 C91.4531255,30.2187488 91.7499976,30.0351569 92.234375,29.9023438 C92.7187524,29.7695306 93.0390617,29.703125 93.1953125,29.703125 C93.7890655,29.703125 94.2656232,29.925779 94.625,30.3710937 C94.9843768,30.8164085 95.1640625,31.4335898 95.1640625,32.2226562 C95.1640625,33.0117227 94.9335961,33.7890587 94.4726562,34.5546875 C94.0117164,35.3203163 93.3984413,35.999997 92.6328125,36.59375 C90.929679,37.9218816 88.9453238,38.5859375 86.6796875,38.5859375 C82.3671659,38.5859375 79.5078195,36.9531413 78.1015625,33.6875 C77.5859349,32.484369 77.328125,30.9765716 77.328125,29.1640625 L77.328125,26.3046875 C77.328125,25.5703088 76.5234455,24.7968791 74.9140625,23.984375 C76.5234455,23.0624954 77.328125,21.8203203 77.328125,20.2578125 L77.328125,17.4921875 C77.328125,15.7109286 76.6015698,14.8203125 75.1484375,14.8203125 C74.6171848,14.8203125 74.1796892,14.9531237 73.8359375,15.21875 C73.6171864,14.9218735 73.5078125,14.6132829 73.5078125,14.2929687 C73.5078125,13.9726546 73.5664057,13.6210957 73.6835938,13.2382812 C73.8007818,12.8554668 74.007811,12.5078141 74.3046875,12.1953125 C75.0546912,11.3828084 76.2187421,11.1015613 77.796875,11.3515625 L77.796875,10.6015625 C77.796875,8.9609293 78.2109334,7.51563125 79.0390625,6.265625 C79.7734412,5.14061938 80.4257784,4.578125 80.9960938,4.578125 C81.5664091,4.578125 82.0078109,4.77343555 82.3203125,5.1640625 C82.5859388,3.92968133 82.9374978,3.03906523 83.375,2.4921875 C83.8125022,1.94530977 84.4374959,1.671875 85.25,1.671875 L85.25,11.4453125 L92.8671875,11.4453125 C92.9921881,11.6953137 93.0546875,12.1132783 93.0546875,12.6992188 C93.0546875,13.2851592 92.8281273,13.7539045 92.375,14.1054688 C91.9218727,14.457033 91.3750032,14.6328125 90.734375,14.6328125 L85.25,14.6328125 L85.25,30.5 C85.25,33.2187636 85.8671813,34.8124977 87.1015625,35.28125 C87.4609393,35.4062506 87.8476542,35.46875 88.2617188,35.46875 C88.6757833,35.46875 89.0742168,35.394532 89.4570312,35.2460938 C89.8398457,35.0976555 90.179686,34.8750015 90.4765625,34.578125 Z M79.578125,31.7890625 C80.3125037,31.3203102 80.726562,30.3437574 80.8203125,28.859375 C80.8828128,27.7968697 80.9179687,26.968753 80.9257812,26.375 C80.9335938,25.781247 80.9414062,25.3007831 80.9492188,24.9335938 C80.9570313,24.5664044 80.9609375,24.281251 80.9609375,24.078125 L80.9609375,23.140625 C80.9609375,22.6874977 80.9570313,22.1054723 80.9492188,21.3945312 C80.9414062,20.6835902 80.9335938,19.9101604 80.9257812,19.0742188 C80.9179687,18.2382771 80.8984377,17.4375038 80.8671875,16.671875 C80.8203123,14.8281158 80.7500005,13.703127 80.65625,13.296875 C80.4687491,12.3906205 80.1093777,11.7656267 79.578125,11.421875 L79.578125,18.734375 C79.578125,20.9062609 79.5429691,22.0546869 79.4726562,22.1796875 C79.4023434,22.3046881 79.3437502,22.4531241 79.296875,22.625 C79.1562493,23.0937523 78.6250046,23.4843734 77.703125,23.796875 C78.6406297,24.1250016 79.1718744,24.5234352 79.296875,24.9921875 C79.4843759,25.7421913 79.578125,27.4999862 79.578125,30.265625 L79.578125,31.7890625 Z M98.09375,38.46875 C96.4062416,38.46875 95.6093745,37.7343823 95.703125,36.265625 C95.703125,35.9999987 95.7968741,35.7343763 95.984375,35.46875 C96.2187512,35.6250008 96.5390605,35.703125 96.9453125,35.703125 C97.4140648,35.703125 97.7968735,35.554689 98.09375,35.2578125 C98.687503,34.6953097 99.2890595,33.8828178 99.8984375,32.8203125 C102.273449,28.7577922 103.460938,26.4687526 103.460938,25.953125 C103.507813,25.6093733 103.30469,25.2304708 102.851562,24.8164062 C102.398435,24.4023417 102.062501,24.1250007 101.84375,23.984375 C103.375008,23.4531223 104.718744,22.6562553 105.875,21.59375 C106.265627,21.2343732 106.562499,20.8828142 106.765625,20.5390625 L110.375,14.421875 C109.609371,14.1562487 108.70313,14.0234375 107.65625,14.0234375 C106.60937,14.0234375 105.695316,14.1601549 104.914062,14.4335938 C104.132809,14.7070326 103.437503,15.0937475 102.828125,15.59375 C101.484368,16.7031305 100.8125,18.1015541 100.8125,19.7890625 C100.8125,20.6015666 100.937499,21.1718734 101.1875,21.5 C100.999999,21.8750019 100.703127,22.0625 100.296875,22.0625 C99.890623,22.0625 99.5468764,21.9921882 99.265625,21.8515625 C98.9843736,21.7109368 98.7343761,21.5156263 98.515625,21.265625 C98.0156225,20.671872 97.765625,20.0000038 97.765625,19.25 C97.765625,18.4999962 97.8671865,17.9140646 98.0703125,17.4921875 C97.4296843,17.0703104 97.109375,16.5273471 97.109375,15.8632812 C97.109375,15.1992154 97.3359352,14.6406273 97.7890625,14.1875 C97.4140606,13.7031226 97.2265625,13.2539083 97.2265625,12.8398438 C97.2265625,12.4257792 97.2968743,12.0781264 97.4375,11.796875 C97.5781257,11.5156236 97.7656238,11.2656261 98,11.046875 C98.5000025,10.5781227 99.0703093,10.34375 99.7109375,10.34375 C100.101564,10.34375 100.460936,10.4062494 100.789062,10.53125 C100.742187,10.7187509 100.71875,10.9843733 100.71875,11.328125 C100.71875,11.8593777 100.968748,12.125 101.46875,12.125 C102.250004,12.125 102.976559,11.976564 103.648438,11.6796875 C104.929694,11.1015596 106.390617,10.8125 108.03125,10.8125 C109.671883,10.8125 111.234368,11.0781223 112.71875,11.609375 C113.421879,11.0781223 114.171871,10.8125 114.96875,10.8125 C115.98438,10.8125 116.796872,11.0781223 117.40625,11.609375 C118.046878,11.0781223 118.742184,10.8125 119.492188,10.8125 C120.242191,10.8125 120.828123,11.015623 121.25,11.421875 C121.671877,11.828127 121.867188,12.3671841 121.835938,13.0390625 C121.835938,13.3828142 121.742188,13.6484366 121.554688,13.8359375 C121.289061,13.6640616 120.937502,13.578125 120.5,13.578125 C119.609371,13.578125 118.851566,14.1874939 118.226562,15.40625 L115.625,20.3046875 C115.218748,21.1171916 115.007813,21.6328114 114.992188,21.8515625 C114.976562,22.0703136 114.996093,22.2578117 115.050781,22.4140625 C115.105469,22.5703133 115.187499,22.7343741 115.296875,22.90625 C115.562501,23.3437522 115.890623,23.7031236 116.28125,23.984375 C114.24999,24.4375023 112.687505,25.6484277 111.59375,27.6171875 L107.351562,34.7421875 C107.992191,35.1640646 108.964837,35.375 110.269531,35.375 C111.574225,35.375 112.578121,35.2148454 113.28125,34.8945312 C113.984379,34.5742171 114.585935,34.1406277 115.085938,33.59375 C116.132818,32.4218691 116.65625,30.9765711 116.65625,29.2578125 C116.65625,28.5234338 116.531251,27.953127 116.28125,27.546875 C116.781252,27.1718731 117.195311,26.984375 117.523438,26.984375 C117.851564,26.984375 118.152342,27.0546868 118.425781,27.1953125 C118.69922,27.3359382 118.945311,27.5312488 119.164062,27.78125 C119.664065,28.375003 119.914062,29.0351526 119.914062,29.7617188 C119.914062,30.4882849 119.757814,31.0937476 119.445312,31.578125 C120.195316,32.0468773 120.570312,32.5859345 120.570312,33.1953125 C120.570312,33.8046905 120.289065,34.3515601 119.726562,34.8359375 C120.226565,35.3671902 120.476562,35.8320293 120.476562,36.2304688 C120.476562,36.6289082 120.406251,36.9804672 120.265625,37.2851562 C120.124999,37.5898453 119.937501,37.8671863 119.703125,38.1171875 C119.187497,38.6640652 118.617191,38.9375 117.992188,38.9375 C117.742186,38.9375 117.453127,38.8750006 117.125,38.75 C117.171875,38.5624991 117.195312,38.2968767 117.195312,37.953125 C117.195312,37.4218723 116.953127,37.15625 116.46875,37.15625 C116.078123,37.15625 115.64844,37.2656239 115.179688,37.484375 C114.710935,37.7031261 114.265627,37.8749994 113.84375,38 C113.421873,38.1250006 112.984377,38.2343745 112.53125,38.328125 C111.57812,38.5000009 110.679692,38.5859375 109.835938,38.5859375 C107.867178,38.5859375 106.195319,38.281253 104.820312,37.671875 C104.070309,38.2031277 103.261723,38.46875 102.394531,38.46875 C101.527339,38.46875 100.781253,38.2031277 100.15625,37.671875 C99.4531215,38.2031277 98.7656284,38.46875 98.09375,38.46875 Z M113.046875,16.1796875 C112.04687,16.2421878 111.179691,16.9140561 110.445313,18.1953125 L108.617188,21.359375 C108.13281,22.1875041 107.781251,22.7499985 107.5625,23.046875 C107.218748,23.4843772 106.57813,23.7968741 105.640625,23.984375 C106.171878,24.2343762 106.425781,24.5117172 106.402344,24.8164062 C106.378906,25.1210953 106.332032,25.3828114 106.261719,25.6015625 C106.191406,25.8203136 106.109375,26.031249 106.015625,26.234375 C105.874999,26.5781267 105.656251,27.0234348 105.359375,27.5703125 L104.46875,29.140625 C103.953122,30.0937548 103.890623,30.9218715 104.28125,31.625 C104.328125,31.7187505 104.398437,31.7734374 104.492188,31.7890625 L113.046875,16.1796875 Z M145.15625,30.921875 C145.500002,30.2656217 146.132808,29.9375 147.054688,29.9375 C147.679691,29.9375 148.164061,30.1953099 148.507812,30.7109375 C148.789064,31.1171895 148.929688,31.6132783 148.929688,32.1992188 C148.929688,32.7851592 148.781251,33.374997 148.484375,33.96875 C148.187499,34.562503 147.781253,35.1015601 147.265625,35.5859375 C146.749997,36.0703149 146.16016,36.4999981 145.496094,36.875 C144.832028,37.2500019 144.125004,37.5624988 143.375,37.8125 C141.828117,38.3281276 140.218758,38.5859375 138.546875,38.5859375 C136.874992,38.5859375 135.308601,38.3085965 133.847656,37.7539062 C132.386711,37.199216 131.132818,36.42188 130.085938,35.421875 C128.039052,33.4531152 126.789065,30.7500172 126.335938,27.3125 C126.226562,26.5468712 126.046876,26.0000016 125.796875,25.671875 C125.328123,25.0937471 124.554693,24.5390652 123.476562,24.0078125 C124.835944,23.3984345 125.703123,22.4218817 126.078125,21.078125 C126.187501,20.7031231 126.273437,20.3281269 126.335938,19.953125 C126.726564,17.2031113 128.117176,14.8593847 130.507812,12.921875 C132.820324,11.0468656 135.406236,10.109375 138.265625,10.109375 C141.23439,10.109375 143.804677,11.1562395 145.976562,13.25 C148.226574,15.4062608 149.351562,18.0546718 149.351562,21.1953125 C149.351562,21.304688 149.347656,21.414062 149.339844,21.5234375 C149.332031,21.632813 149.335937,21.7343745 149.351562,21.828125 C149.382813,22.031251 149.507811,22.1484373 149.726562,22.1796875 C150.007814,22.5390643 150.148438,22.921873 150.148438,23.328125 C150.148438,24.2656297 149.648442,24.8203116 148.648438,24.9921875 C148.398436,25.0390627 148.007815,25.1015621 147.476562,25.1796875 L134.257812,27.2890625 L134.257812,29.5390625 C134.257812,31.3515716 134.804682,32.7890572 135.898438,33.8515625 C136.929693,34.8671926 138.234367,35.375 139.8125,35.375 C141.484383,35.375 142.82812,35.0312534 143.84375,34.34375 C144.79688,33.6874967 145.273438,32.8281303 145.273438,31.765625 C145.273438,31.5156238 145.234375,31.2343766 145.15625,30.921875 Z M141.054688,23.3515625 L141.054688,16.7890625 C141.054688,15.7578073 140.851565,15.0000024 140.445312,14.515625 C139.726559,13.6874959 139.015629,13.2734375 138.3125,13.2734375 C137.609371,13.2734375 137.02344,13.3789052 136.554688,13.5898438 C136.085935,13.8007823 135.679689,14.1328102 135.335938,14.5859375 C134.617184,15.5390673 134.257812,17.0234274 134.257812,19.0390625 L134.257812,24.453125 L141.054688,23.3515625 Z M144.523438,22.765625 L144.523438,22.0390625 C144.523438,19.132798 144.281252,17.375003 143.796875,16.765625 C143.578124,16.4999987 143.335939,16.3046881 143.070312,16.1796875 L143.070312,23 L144.523438,22.765625 Z M130.4375,31.7890625 C130.656251,31.6171866 130.765625,31.4218761 130.765625,31.203125 C130.765625,30.8593733 130.695313,30.4218777 130.554688,29.890625 C129.914059,27.4374877 129.59375,25.7304736 129.59375,24.7695312 C129.59375,23.8085889 129.625,23.0585964 129.6875,22.5195312 C129.75,21.9804661 129.835937,21.4375027 129.945312,20.890625 C130.132813,19.8281197 130.335936,18.8906291 130.554688,18.078125 C130.695313,17.5468723 130.765625,17.1875009 130.765625,17 C130.765625,16.6249981 130.656251,16.3515634 130.4375,16.1796875 C129.781247,16.9609414 129.281252,18.0078059 128.9375,19.3203125 C128.593748,20.6328191 128.312501,21.7890575 128.09375,22.7890625 C128.015625,23.2109396 127.554692,23.6171855 126.710938,24.0078125 C127.554692,24.3984395 128.015625,24.7890605 128.09375,25.1796875 C128.671878,27.8203257 129.148436,29.4999964 129.523438,30.21875 C129.898439,30.9375036 130.203124,31.4609359 130.4375,31.7890625 Z M157.578125,37.71875 C156.859371,38.2187525 156.039067,38.46875 155.117188,38.46875 C154.195308,38.46875 153.527346,38.2539084 153.113281,37.8242188 C152.699217,37.3945291 152.492188,36.984377 152.492188,36.59375 C152.492188,36.0781224 152.578124,35.7031262 152.75,35.46875 C153.093752,35.7343763 153.531247,35.8671875 154.0625,35.8671875 C155.062505,35.8671875 155.710936,35.3828173 156.007812,34.4140625 L156.007812,27.3125 C156.007812,26.5937464 155.867189,26.0625017 155.585938,25.71875 C155.085935,25.109372 154.273443,24.5312527 153.148438,23.984375 C155.054697,23.1093706 156.007812,21.7656341 156.007812,19.953125 L156.007812,17.4921875 C156.007812,16.1640559 155.554692,15.445313 154.648438,15.3359375 C154.382811,15.3046873 154.046877,15.2890625 153.640625,15.2890625 C153.234373,15.2890625 152.859377,15.4218737 152.515625,15.6875 C152.296874,15.3906235 152.1875,15.0820329 152.1875,14.7617188 C152.1875,14.4414046 152.26953,14.0820332 152.433594,13.6835938 C152.597657,13.2851543 152.851561,12.9062518 153.195312,12.546875 C154.007817,11.7031208 154.957026,11.28125 156.042969,11.28125 C157.128912,11.28125 158.031246,11.4531233 158.75,11.796875 C159.609379,10.8281202 160.531245,10.34375 161.515625,10.34375 C163.046883,10.34375 163.8125,11.1874916 163.8125,12.875 L163.8125,16.0859375 C165.375008,12.2421683 167.859358,10.3203125 171.265625,10.3203125 C172.796883,10.3203125 174.039058,10.7890578 174.992188,11.7265625 C175.976567,12.6796923 176.46875,13.9999916 176.46875,15.6875 L176.46875,16.015625 C176.46875,16.1250005 176.453125,16.3476546 176.421875,16.6835938 C176.390625,17.0195329 176.402343,17.3593733 176.457031,17.703125 C176.511719,18.0468767 176.601562,18.3281239 176.726562,18.546875 C176.898438,18.8750016 177.218748,19.1328116 177.6875,19.3203125 C177.578124,19.7421896 177.324221,20.1210921 176.925781,20.4570312 C176.527342,20.7929704 176.08594,20.9609375 175.601562,20.9609375 L175.15625,20.9609375 C174.546872,21.7265663 173.695318,22.2656234 172.601562,22.578125 C172.289061,22.6718755 171.949221,22.71875 171.582031,22.71875 C171.214842,22.71875 170.894533,22.6367196 170.621094,22.4726562 C170.347655,22.3085929 170.195313,22.1328134 170.164062,21.9453125 C170.460939,21.8046868 170.609375,21.5234396 170.609375,21.1015625 L170.609375,20.984375 C170.484374,21.0156252 170.375,21.03125 170.28125,21.03125 L170.046875,21.03125 C169.531247,21.03125 169.066408,20.8359395 168.652344,20.4453125 C168.238279,20.0546855 167.968751,19.562503 167.84375,18.96875 C168.687504,19.0000002 169.421872,18.6875033 170.046875,18.03125 C170.609378,17.4531221 170.890625,16.859378 170.890625,16.25 C170.890625,14.8124928 170.265631,14.09375 169.015625,14.09375 C167.937495,14.09375 166.851568,14.9531164 165.757812,16.671875 C164.726557,18.2500079 164.078126,19.8828041 163.8125,21.5703125 L163.8125,34.25 C163.984376,34.7968777 164.249998,35.2031237 164.609375,35.46875 C164.968752,35.7343763 165.460934,35.8671875 166.085938,35.8671875 C166.710941,35.8671875 167.195311,35.7343763 167.539062,35.46875 C167.710938,35.7031262 167.796875,36.0468727 167.796875,36.5 C167.796875,36.9531273 167.589846,37.3945291 167.175781,37.8242188 C166.761717,38.2539084 166.066411,38.46875 165.089844,38.46875 C164.113276,38.46875 163.179692,38.2031277 162.289062,37.671875 C161.664059,38.2031277 160.906254,38.46875 160.015625,38.46875 C159.124996,38.46875 158.312504,38.2187525 157.578125,37.71875 Z M159.59375,26.609375 C159.609375,26.0781223 159.621094,25.6328143 159.628906,25.2734375 C159.636719,24.9140607 159.640625,24.6250011 159.640625,24.40625 L159.640625,23.7734375 C159.640625,23.5390613 159.636719,23.2382831 159.628906,22.8710938 C159.621094,22.5039044 159.613281,22.0898461 159.605469,21.6289062 C159.597656,21.1679664 159.585938,20.7187522 159.570312,20.28125 C159.476562,18.6562419 159.300783,17.6132836 159.042969,17.1523438 C158.785155,16.6914039 158.523439,16.3750009 158.257812,16.203125 L158.257812,17.7265625 C158.257812,20.3515756 158.199219,21.8945289 158.082031,22.3554688 C157.964843,22.8164086 157.777345,23.1601551 157.519531,23.3867188 C157.261717,23.6132824 156.882815,23.8124991 156.382812,23.984375 C157.320317,24.3125016 157.851562,24.7109352 157.976562,25.1796875 C158.164063,25.9296913 158.257812,27.6171744 158.257812,30.2421875 L158.257812,31.765625 C158.976566,31.2968727 159.382812,30.3437572 159.476562,28.90625 C159.554688,27.8906199 159.59375,27.1250026 159.59375,26.609375 Z" id="Seltzer-Copy-8" fill="#000000"></path>
    </g>
</svg>