<?xml version="1.0" encoding="UTF-8"?>
<svg width="144px" height="37px" viewBox="0 0 144 37" version="1.1" xmlns="http://www.w3.org/2000/svg" xmlns:xlink="http://www.w3.org/1999/xlink">
    <!-- Generator: Sketch 52.5 (67469) - http://www.bohemiancoding.com/sketch -->
    <title>Seltzer Copy 10</title>
    <desc>Created with Sketch.</desc>
    <g id="Page-1" stroke="none" stroke-width="1" fill="none" fill-rule="evenodd">
        <path d="M11.62,2.592 C13.9880118,2.592 16.3559882,2.94399648 18.724,3.648 C19.1720022,3.77600064 19.396,4.06399776 19.396,4.512 L19.396,11.136 C19.396,11.6160024 19.1560024,11.856 18.676,11.856 L15.988,11.856 C15.5079976,11.856 15.2839998,11.6160024 15.316,11.136 L15.46,7.92 C14.1799936,7.15199616 12.7560078,6.768 11.188,6.768 C9.61999216,6.768 8.36400472,7.14399624 7.42,7.896 C6.47599528,8.64800376 6.004,9.69599328 6.004,11.04 C6.004,12.3840067 6.43599568,13.4799958 7.3,14.328 C8.16400432,15.1760042 9.395992,15.903997 10.996,16.512 C12.596008,17.120003 13.6679973,17.5359989 14.212,17.76 C14.7560027,17.9840011 15.5479948,18.399997 16.588,19.008 C17.6280052,19.616003 18.3959975,20.215997 18.892,20.808 C19.3880025,21.400003 19.8519978,22.191995 20.284,23.184 C20.7160022,24.176005 20.932,25.2799939 20.932,26.496 C20.932,29.6640158 19.93201,32.1359911 17.932,33.912 C15.93199,35.6880089 13.0920184,36.576 9.412,36.576 C6.6919864,36.576 4.00401328,36.1600042 1.348,35.328 C0.89999776,35.1999994 0.676,34.9120022 0.676,34.464 L0.676,26.832 C0.676,26.3519976 0.9159976,26.112 1.396,26.112 L4.084,26.112 C4.5640024,26.112 4.78800016,26.3519976 4.756,26.832 L4.564,30.816 C4.98000208,31.2000019 5.67599512,31.5599983 6.652,31.896 C7.62800488,32.2320017 8.62799488,32.4 9.652,32.4 C13.6200198,32.4 15.604,30.7840162 15.604,27.552 C15.604,25.9839922 15.0760053,24.7440046 14.02,23.832 C12.9639947,22.9199954 11.5960084,22.1840028 9.916,21.624 C8.2359916,21.0639972 6.96400432,20.5680022 6.1,20.136 C5.23599568,19.7039978 4.35600448,19.1360035 3.46,18.432 C1.66799104,17.0879933 0.772,15.0240139 0.772,12.24 C0.772,9.45598608 1.7319904,7.15200912 3.652,5.328 C5.5720096,3.50399088 8.22798304,2.592 11.62,2.592 Z M35.572,36.576 C31.763981,36.576 28.9720089,35.4640111 27.196,33.24 C25.4199911,31.0159889 24.532,28.0720183 24.532,24.408 C24.532,20.7439817 25.4759906,17.712012 27.364,15.312 C29.2520094,12.911988 31.9719822,11.712 35.524,11.712 C37.2840088,11.712 38.7959937,12.0399967 40.06,12.696 C41.3240063,13.3520033 42.2919966,14.2399944 42.964,15.36 C44.2440064,17.5360109 44.884,20.0479858 44.884,22.896 C44.884,24.2400067 44.8200006,24.9759994 44.692,25.104 C44.5639994,25.2320006 44.3240018,25.296 43.972,25.296 L29.86,25.296 C30.0200008,27.6000115 30.5879951,29.3839937 31.564,30.648 C32.5400049,31.9120063 34.227988,32.544 36.628,32.544 C38.3880088,32.544 40.1959907,32.1280042 42.052,31.296 C42.5000022,31.0719989 42.819999,31.1999976 43.012,31.68 L43.924,33.888 C44.0840008,34.2720019 43.9400022,34.5919987 43.492,34.848 C41.3799894,36.0000058 38.7400158,36.576 35.572,36.576 Z M29.86,21.744 L39.844,21.744 C39.9080003,17.74398 38.340016,15.744 35.14,15.744 C33.2519906,15.744 31.9160039,16.343994 31.132,17.544 C30.3479961,18.744006 29.9240003,20.143992 29.86,21.744 Z M56.212,0.912 L56.212,32.208 L59.236,32.208 C59.7160024,32.208 59.956,32.4479976 59.956,32.928 L59.956,35.28 C59.956,35.7600024 59.7160024,36 59.236,36 L47.812,36 C47.3319976,36 47.092,35.7600024 47.092,35.28 L47.092,32.928 C47.092,32.4479976 47.3319976,32.208 47.812,32.208 L50.836,32.208 L50.836,4.128 L48.244,4.128 C47.7639976,4.128 47.524,3.8880024 47.524,3.408 L47.524,0.912 C47.524,0.4319976 47.7639976,0.192 48.244,0.192 L55.492,0.192 C55.9720024,0.192 56.212,0.4319976 56.212,0.912 Z M69.988,16.176 L69.988,28.272 C69.988,29.7760075 70.1799981,30.8639966 70.564,31.536 C70.9480019,32.2080034 71.6679947,32.544 72.724,32.544 C73.7800053,32.544 74.803995,32.3200022 75.796,31.872 C76.1480018,31.7439994 76.4039992,31.8719981 76.564,32.256 L77.428,34.464 C77.4600002,34.5600005 77.476,34.6959991 77.476,34.872 C77.476,35.0480009 77.3160016,35.231999 76.996,35.424 C75.4599923,36.1920038 73.6360106,36.576 71.524,36.576 C68.6759858,36.576 66.8040045,35.8400074 65.908,34.368 C65.2679968,33.4079952 64.9000005,32.4800045 64.804,31.584 C64.6759994,30.3679939 64.612,29.0880067 64.612,27.744 L64.612,16.176 L61.876,16.176 C61.3959976,16.176 61.156,15.9360024 61.156,15.456 L61.156,12.96 C61.156,12.4799976 61.3959976,12.24 61.876,12.24 L64.612,12.24 L64.612,5.76 C64.612,5.2799976 64.8519976,5.04 65.332,5.04 L69.268,5.04 C69.7480024,5.04 69.988,5.2799976 69.988,5.76 L69.988,12.24 L74.836,12.24 C75.3160024,12.24 75.556,12.4799976 75.556,12.96 L75.556,15.456 C75.556,15.9360024 75.3160024,16.176 74.836,16.176 L69.988,16.176 Z M98.404,29.232 L98.356,35.28 C98.356,35.7600024 98.1160024,36 97.636,36 L80.548,36 C80.0679976,36 79.828,35.7600024 79.828,35.28 L79.828,32.496 C79.828,32.0159976 79.9719986,31.5840019 80.26,31.2 L92.212,16.08 L84.244,16.08 L84.34,18.624 C84.3720002,19.1040024 84.1480024,19.344 83.668,19.344 L81.028,19.344 C80.5479976,19.344 80.308,19.1040024 80.308,18.624 L80.308,12.96 C80.308,12.4799976 80.5479976,12.24 81.028,12.24 L97.492,12.24 C97.9720024,12.24 98.212,12.4799976 98.212,12.96 L98.212,15.648 C98.212,16.1280024 98.0680014,16.5599981 97.78,16.944 L85.54,32.256 L94.42,32.256 L94.324,29.232 C94.2919998,28.7519976 94.5159976,28.512 94.996,28.512 L97.684,28.512 C98.1640024,28.512 98.404,28.7519976 98.404,29.232 Z M112.564,36.576 C108.755981,36.576 105.964009,35.4640111 104.188,33.24 C102.411991,31.0159889 101.524,28.0720183 101.524,24.408 C101.524,20.7439817 102.467991,17.712012 104.356,15.312 C106.244009,12.911988 108.963982,11.712 112.516,11.712 C114.276009,11.712 115.787994,12.0399967 117.052,12.696 C118.316006,13.3520033 119.283997,14.2399944 119.956,15.36 C121.236006,17.5360109 121.876,20.0479858 121.876,22.896 C121.876,24.2400067 121.812001,24.9759994 121.684,25.104 C121.555999,25.2320006 121.316002,25.296 120.964,25.296 L106.852,25.296 C107.012001,27.6000115 107.579995,29.3839937 108.556,30.648 C109.532005,31.9120063 111.219988,32.544 113.62,32.544 C115.380009,32.544 117.187991,32.1280042 119.044,31.296 C119.492002,31.0719989 119.811999,31.1999976 120.004,31.68 L120.916,33.888 C121.076001,34.2720019 120.932002,34.5919987 120.484,34.848 C118.371989,36.0000058 115.732016,36.576 112.564,36.576 Z M106.852,21.744 L116.836,21.744 C116.9,17.74398 115.332016,15.744 112.132,15.744 C110.243991,15.744 108.908004,16.343994 108.124,17.544 C107.339996,18.744006 106.916,20.143992 106.852,21.744 Z M132.916,16.368 C133.460003,15.0879936 134.339994,13.9920046 135.556,13.08 C136.772006,12.1679954 138.099993,11.712 139.54,11.712 C140.980007,11.712 142.083996,11.8399987 142.852,12.096 C143.236002,12.2240006 143.428,12.5119978 143.428,12.96 L143.428,19.44 C143.428,19.9200024 143.188002,20.16 142.708,20.16 L139.588,20.16 C139.107998,20.16 138.884,19.9200024 138.916,19.44 L139.108,16.656 C138.947999,16.6239998 138.676002,16.608 138.292,16.608 C136.819993,16.608 135.604005,17.207994 134.644,18.408 C133.683995,19.608006 133.204,21.2159899 133.204,23.232 L133.204,32.208 L138.484,32.208 C138.964002,32.208 139.204,32.4479976 139.204,32.928 L139.204,35.28 C139.204,35.7600024 138.964002,36 138.484,36 L125.284,36 C124.803998,36 124.564,35.7600024 124.564,35.28 L124.564,32.928 C124.564,32.4479976 124.803998,32.208 125.284,32.208 L127.828,32.208 L127.828,16.176 L125.236,16.176 C124.755998,16.176 124.516,15.9360024 124.516,15.456 L124.516,12.96 C124.516,12.4799976 124.755998,12.24 125.236,12.24 L131.572,12.24 C132.020002,12.24 132.292,12.4799976 132.388,12.96 L132.916,16.368 Z" id="Seltzer-Copy-10" fill="#000000"></path>
    </g>
</svg>